%TF.GenerationSoftware,KiCad,Pcbnew,7.0.9*%
%TF.CreationDate,2024-01-07T17:51:15+01:00*%
%TF.ProjectId,K24LM1MA_veml7700_lightmeter,4b32344c-4d31-44d4-915f-76656d6c3737,rev?*%
%TF.SameCoordinates,Original*%
%TF.FileFunction,Soldermask,Top*%
%TF.FilePolarity,Negative*%
%FSLAX46Y46*%
G04 Gerber Fmt 4.6, Leading zero omitted, Abs format (unit mm)*
G04 Created by KiCad (PCBNEW 7.0.9) date 2024-01-07 17:51:15*
%MOMM*%
%LPD*%
G01*
G04 APERTURE LIST*
G04 Aperture macros list*
%AMRoundRect*
0 Rectangle with rounded corners*
0 $1 Rounding radius*
0 $2 $3 $4 $5 $6 $7 $8 $9 X,Y pos of 4 corners*
0 Add a 4 corners polygon primitive as box body*
4,1,4,$2,$3,$4,$5,$6,$7,$8,$9,$2,$3,0*
0 Add four circle primitives for the rounded corners*
1,1,$1+$1,$2,$3*
1,1,$1+$1,$4,$5*
1,1,$1+$1,$6,$7*
1,1,$1+$1,$8,$9*
0 Add four rect primitives between the rounded corners*
20,1,$1+$1,$2,$3,$4,$5,0*
20,1,$1+$1,$4,$5,$6,$7,0*
20,1,$1+$1,$6,$7,$8,$9,0*
20,1,$1+$1,$8,$9,$2,$3,0*%
G04 Aperture macros list end*
%ADD10RoundRect,0.225000X-0.250000X0.225000X-0.250000X-0.225000X0.250000X-0.225000X0.250000X0.225000X0*%
%ADD11R,1.700000X1.700000*%
%ADD12O,1.700000X1.700000*%
%ADD13R,2.800000X1.000000*%
%ADD14C,0.650000*%
%ADD15C,0.900000*%
G04 APERTURE END LIST*
D10*
%TO.C,C1*%
X147701000Y-109207000D03*
X147701000Y-110757000D03*
%TD*%
D11*
%TO.C,J4*%
X129540000Y-133477000D03*
D12*
X127000000Y-133477000D03*
X124460000Y-133477000D03*
X121920000Y-133477000D03*
%TD*%
D11*
%TO.C,J1*%
X121920000Y-127000000D03*
D12*
X124460000Y-127000000D03*
X127000000Y-127000000D03*
X129540000Y-127000000D03*
X132080000Y-127000000D03*
X134620000Y-127000000D03*
X137160000Y-127000000D03*
X139700000Y-127000000D03*
%TD*%
D11*
%TO.C,J3*%
X153924000Y-137160000D03*
D12*
X151384000Y-137160000D03*
X148844000Y-137160000D03*
X146304000Y-137160000D03*
%TD*%
D11*
%TO.C,J2*%
X121920000Y-137160000D03*
D12*
X124460000Y-137160000D03*
X127000000Y-137160000D03*
X129540000Y-137160000D03*
X132080000Y-137160000D03*
X134620000Y-137160000D03*
X137160000Y-137160000D03*
X139700000Y-137160000D03*
%TD*%
D13*
%TO.C,SW2*%
X150135000Y-117675000D03*
X155935000Y-117675000D03*
X150135000Y-121675000D03*
X155935000Y-121675000D03*
%TD*%
D10*
%TO.C,C5*%
X134366000Y-115430000D03*
X134366000Y-116980000D03*
%TD*%
%TO.C,C4*%
X131064000Y-118986000D03*
X131064000Y-120536000D03*
%TD*%
%TO.C,C3*%
X131064000Y-110350000D03*
X131064000Y-111900000D03*
%TD*%
D13*
%TO.C,SW5*%
X136800000Y-114205000D03*
X142600000Y-114205000D03*
X136800000Y-118205000D03*
X142600000Y-118205000D03*
%TD*%
%TO.C,SW1*%
X150135000Y-109125000D03*
X155935000Y-109125000D03*
X150135000Y-113125000D03*
X155935000Y-113125000D03*
%TD*%
%TO.C,SW4*%
X122830000Y-117725000D03*
X128630000Y-117725000D03*
X122830000Y-121725000D03*
X128630000Y-121725000D03*
%TD*%
%TO.C,SW3*%
X122830000Y-109175000D03*
X128630000Y-109175000D03*
X122830000Y-113175000D03*
X128630000Y-113175000D03*
%TD*%
D10*
%TO.C,C2*%
X147574000Y-118859000D03*
X147574000Y-120409000D03*
%TD*%
D14*
%TO.C,J5*%
X152459000Y-125253000D03*
X152459000Y-131033000D03*
%TD*%
D15*
%TO.C,SW6*%
X157335000Y-113943000D03*
X157335000Y-116943000D03*
%TD*%
M02*
