%TF.GenerationSoftware,KiCad,Pcbnew,7.0.9*%
%TF.CreationDate,2024-01-07T17:51:15+01:00*%
%TF.ProjectId,K24LM1MA_veml7700_lightmeter,4b32344c-4d31-44d4-915f-76656d6c3737,rev?*%
%TF.SameCoordinates,Original*%
%TF.FileFunction,Soldermask,Bot*%
%TF.FilePolarity,Negative*%
%FSLAX46Y46*%
G04 Gerber Fmt 4.6, Leading zero omitted, Abs format (unit mm)*
G04 Created by KiCad (PCBNEW 7.0.9) date 2024-01-07 17:51:15*
%MOMM*%
%LPD*%
G01*
G04 APERTURE LIST*
G04 Aperture macros list*
%AMRoundRect*
0 Rectangle with rounded corners*
0 $1 Rounding radius*
0 $2 $3 $4 $5 $6 $7 $8 $9 X,Y pos of 4 corners*
0 Add a 4 corners polygon primitive as box body*
4,1,4,$2,$3,$4,$5,$6,$7,$8,$9,$2,$3,0*
0 Add four circle primitives for the rounded corners*
1,1,$1+$1,$2,$3*
1,1,$1+$1,$4,$5*
1,1,$1+$1,$6,$7*
1,1,$1+$1,$8,$9*
0 Add four rect primitives between the rounded corners*
20,1,$1+$1,$2,$3,$4,$5,0*
20,1,$1+$1,$4,$5,$6,$7,0*
20,1,$1+$1,$6,$7,$8,$9,0*
20,1,$1+$1,$8,$9,$2,$3,0*%
G04 Aperture macros list end*
%ADD10R,1.700000X1.700000*%
%ADD11O,1.700000X1.700000*%
%ADD12RoundRect,0.200000X-0.200000X-0.275000X0.200000X-0.275000X0.200000X0.275000X-0.200000X0.275000X0*%
%ADD13RoundRect,0.225000X0.250000X-0.225000X0.250000X0.225000X-0.250000X0.225000X-0.250000X-0.225000X0*%
%ADD14RoundRect,0.144000X0.943000X0.258000X-0.943000X0.258000X-0.943000X-0.258000X0.943000X-0.258000X0*%
%ADD15RoundRect,0.102000X1.206500X1.651000X-1.206500X1.651000X-1.206500X-1.651000X1.206500X-1.651000X0*%
%ADD16RoundRect,0.150000X-0.150000X0.587500X-0.150000X-0.587500X0.150000X-0.587500X0.150000X0.587500X0*%
%ADD17RoundRect,0.200000X0.200000X0.275000X-0.200000X0.275000X-0.200000X-0.275000X0.200000X-0.275000X0*%
%ADD18RoundRect,0.225000X0.225000X0.250000X-0.225000X0.250000X-0.225000X-0.250000X0.225000X-0.250000X0*%
%ADD19RoundRect,0.200000X-0.275000X0.200000X-0.275000X-0.200000X0.275000X-0.200000X0.275000X0.200000X0*%
%ADD20RoundRect,0.225000X-0.225000X-0.250000X0.225000X-0.250000X0.225000X0.250000X-0.225000X0.250000X0*%
%ADD21RoundRect,0.150000X-0.512500X-0.150000X0.512500X-0.150000X0.512500X0.150000X-0.512500X0.150000X0*%
%ADD22RoundRect,0.218750X0.218750X0.256250X-0.218750X0.256250X-0.218750X-0.256250X0.218750X-0.256250X0*%
%ADD23C,0.650000*%
%ADD24RoundRect,0.150000X-0.425000X0.150000X-0.425000X-0.150000X0.425000X-0.150000X0.425000X0.150000X0*%
%ADD25RoundRect,0.075000X-0.500000X0.075000X-0.500000X-0.075000X0.500000X-0.075000X0.500000X0.075000X0*%
%ADD26RoundRect,0.250000X-0.750000X0.840000X-0.750000X-0.840000X0.750000X-0.840000X0.750000X0.840000X0*%
%ADD27RoundRect,0.150000X0.512500X0.150000X-0.512500X0.150000X-0.512500X-0.150000X0.512500X-0.150000X0*%
%ADD28R,2.600000X3.600000*%
%ADD29RoundRect,0.200000X0.275000X-0.200000X0.275000X0.200000X-0.275000X0.200000X-0.275000X-0.200000X0*%
%ADD30R,0.800000X1.000000*%
%ADD31C,0.900000*%
%ADD32R,1.500000X0.700000*%
G04 APERTURE END LIST*
D10*
%TO.C,J4*%
X129540000Y-133477000D03*
D11*
X127000000Y-133477000D03*
X124460000Y-133477000D03*
X121920000Y-133477000D03*
%TD*%
D10*
%TO.C,J1*%
X121920000Y-127000000D03*
D11*
X124460000Y-127000000D03*
X127000000Y-127000000D03*
X129540000Y-127000000D03*
X132080000Y-127000000D03*
X134620000Y-127000000D03*
X137160000Y-127000000D03*
X139700000Y-127000000D03*
%TD*%
D10*
%TO.C,J3*%
X153924000Y-137160000D03*
D11*
X151384000Y-137160000D03*
X148844000Y-137160000D03*
X146304000Y-137160000D03*
%TD*%
D10*
%TO.C,J2*%
X121920000Y-137160000D03*
D11*
X124460000Y-137160000D03*
X127000000Y-137160000D03*
X129540000Y-137160000D03*
X132080000Y-137160000D03*
X134620000Y-137160000D03*
X137160000Y-137160000D03*
X139700000Y-137160000D03*
%TD*%
D12*
%TO.C,R6*%
X147889000Y-129159000D03*
X149539000Y-129159000D03*
%TD*%
D13*
%TO.C,C12*%
X143896500Y-125743000D03*
X143896500Y-124193000D03*
%TD*%
D14*
%TO.C,U1*%
X144334000Y-129286000D03*
X144334000Y-130556000D03*
X144334000Y-131826000D03*
X144334000Y-133096000D03*
X139384000Y-133096000D03*
X139384000Y-131826000D03*
X139384000Y-130556000D03*
X139384000Y-129286000D03*
D15*
X141859000Y-131191000D03*
%TD*%
D16*
%TO.C,D1*%
X122240000Y-129237500D03*
X124140000Y-129237500D03*
X123190000Y-131112500D03*
%TD*%
D17*
%TO.C,R5*%
X137412000Y-131953000D03*
X135762000Y-131953000D03*
%TD*%
D18*
%TO.C,C14*%
X129045000Y-138684000D03*
X127495000Y-138684000D03*
%TD*%
D19*
%TO.C,R2*%
X157353000Y-104204000D03*
X157353000Y-105854000D03*
%TD*%
D18*
%TO.C,C13*%
X129045000Y-135636000D03*
X127495000Y-135636000D03*
%TD*%
D20*
%TO.C,C10*%
X147942000Y-133096000D03*
X149492000Y-133096000D03*
%TD*%
D16*
%TO.C,Q1*%
X153603500Y-108094500D03*
X155503500Y-108094500D03*
X154553500Y-109969500D03*
%TD*%
D18*
%TO.C,C6*%
X140729000Y-134747000D03*
X139179000Y-134747000D03*
%TD*%
D12*
%TO.C,R10*%
X142309500Y-127254000D03*
X143959500Y-127254000D03*
%TD*%
D21*
%TO.C,U2*%
X153416000Y-106299000D03*
X153416000Y-105349000D03*
X153416000Y-104399000D03*
X155691000Y-104399000D03*
X155691000Y-105349000D03*
X155691000Y-106299000D03*
%TD*%
D16*
%TO.C,Q2*%
X149733000Y-106934000D03*
X151633000Y-106934000D03*
X150683000Y-108809000D03*
%TD*%
D22*
%TO.C,D4*%
X134264500Y-131953000D03*
X132689500Y-131953000D03*
%TD*%
D23*
%TO.C,J5*%
X152459000Y-125253000D03*
X152459000Y-131033000D03*
D24*
X151384000Y-124943000D03*
X151384000Y-125743000D03*
D25*
X151384000Y-126893000D03*
X151384000Y-127893000D03*
X151384000Y-128393000D03*
X151384000Y-129393000D03*
D24*
X151384000Y-130543000D03*
X151384000Y-131343000D03*
X151384000Y-131343000D03*
X151384000Y-130543000D03*
D25*
X151384000Y-129893000D03*
X151384000Y-128893000D03*
X151384000Y-127393000D03*
X151384000Y-126393000D03*
D24*
X151384000Y-125743000D03*
X151384000Y-124943000D03*
D26*
X155889000Y-123033000D03*
X151959000Y-123033000D03*
X155889000Y-133253000D03*
X151959000Y-133253000D03*
%TD*%
D17*
%TO.C,R4*%
X137412000Y-130429000D03*
X135762000Y-130429000D03*
%TD*%
D27*
%TO.C,U3*%
X147822500Y-123383000D03*
X147822500Y-124333000D03*
X147822500Y-125283000D03*
X145547500Y-125283000D03*
X145547500Y-123383000D03*
%TD*%
D13*
%TO.C,C7*%
X153162000Y-119139000D03*
X153162000Y-117589000D03*
%TD*%
D17*
%TO.C,R3*%
X151828000Y-105156000D03*
X150178000Y-105156000D03*
%TD*%
D12*
%TO.C,R7*%
X147889000Y-126873000D03*
X149539000Y-126873000D03*
%TD*%
D13*
%TO.C,C11*%
X149484500Y-124407000D03*
X149484500Y-122857000D03*
%TD*%
D28*
%TO.C,BT1*%
X151556000Y-113792000D03*
X122256000Y-113792000D03*
%TD*%
D13*
%TO.C,C9*%
X157347500Y-108852000D03*
X157347500Y-107302000D03*
%TD*%
D22*
%TO.C,FB1*%
X149504500Y-131572000D03*
X147929500Y-131572000D03*
%TD*%
%TO.C,D5*%
X134264500Y-130429000D03*
X132689500Y-130429000D03*
%TD*%
D12*
%TO.C,R8*%
X147892000Y-134747000D03*
X149542000Y-134747000D03*
%TD*%
D20*
%TO.C,C8*%
X142238250Y-134747000D03*
X143788250Y-134747000D03*
%TD*%
D16*
%TO.C,D2*%
X125796000Y-129237500D03*
X127696000Y-129237500D03*
X126746000Y-131112500D03*
%TD*%
D29*
%TO.C,R1*%
X146431000Y-129476000D03*
X146431000Y-127826000D03*
%TD*%
D30*
%TO.C,SW6*%
X158435000Y-111793000D03*
X156225000Y-111793000D03*
D31*
X157335000Y-113943000D03*
X157335000Y-116943000D03*
D30*
X158435000Y-119093000D03*
X156225000Y-119093000D03*
D32*
X155575000Y-113193000D03*
X155575000Y-116193000D03*
X155575000Y-117693000D03*
%TD*%
D29*
%TO.C,R9*%
X142372500Y-125793000D03*
X142372500Y-124143000D03*
%TD*%
D16*
%TO.C,D3*%
X129225000Y-129237500D03*
X131125000Y-129237500D03*
X130175000Y-131112500D03*
%TD*%
M02*
