%TF.GenerationSoftware,KiCad,Pcbnew,7.0.9*%
%TF.CreationDate,2024-01-07T17:51:15+01:00*%
%TF.ProjectId,K24LM1MA_veml7700_lightmeter,4b32344c-4d31-44d4-915f-76656d6c3737,rev?*%
%TF.SameCoordinates,Original*%
%TF.FileFunction,Legend,Top*%
%TF.FilePolarity,Positive*%
%FSLAX46Y46*%
G04 Gerber Fmt 4.6, Leading zero omitted, Abs format (unit mm)*
G04 Created by KiCad (PCBNEW 7.0.9) date 2024-01-07 17:51:15*
%MOMM*%
%LPD*%
G01*
G04 APERTURE LIST*
%ADD10C,0.150000*%
%ADD11C,0.120000*%
G04 APERTURE END LIST*
D10*
X124614207Y-107021104D02*
X124614207Y-105721104D01*
X125171351Y-106959200D02*
X125357065Y-107021104D01*
X125357065Y-107021104D02*
X125666589Y-107021104D01*
X125666589Y-107021104D02*
X125790398Y-106959200D01*
X125790398Y-106959200D02*
X125852303Y-106897295D01*
X125852303Y-106897295D02*
X125914208Y-106773485D01*
X125914208Y-106773485D02*
X125914208Y-106649676D01*
X125914208Y-106649676D02*
X125852303Y-106525866D01*
X125852303Y-106525866D02*
X125790398Y-106463961D01*
X125790398Y-106463961D02*
X125666589Y-106402057D01*
X125666589Y-106402057D02*
X125418970Y-106340152D01*
X125418970Y-106340152D02*
X125295160Y-106278247D01*
X125295160Y-106278247D02*
X125233255Y-106216342D01*
X125233255Y-106216342D02*
X125171351Y-106092533D01*
X125171351Y-106092533D02*
X125171351Y-105968723D01*
X125171351Y-105968723D02*
X125233255Y-105844914D01*
X125233255Y-105844914D02*
X125295160Y-105783009D01*
X125295160Y-105783009D02*
X125418970Y-105721104D01*
X125418970Y-105721104D02*
X125728493Y-105721104D01*
X125728493Y-105721104D02*
X125914208Y-105783009D01*
X126718969Y-105721104D02*
X126966588Y-105721104D01*
X126966588Y-105721104D02*
X127090398Y-105783009D01*
X127090398Y-105783009D02*
X127214207Y-105906819D01*
X127214207Y-105906819D02*
X127276112Y-106154438D01*
X127276112Y-106154438D02*
X127276112Y-106587771D01*
X127276112Y-106587771D02*
X127214207Y-106835390D01*
X127214207Y-106835390D02*
X127090398Y-106959200D01*
X127090398Y-106959200D02*
X126966588Y-107021104D01*
X126966588Y-107021104D02*
X126718969Y-107021104D01*
X126718969Y-107021104D02*
X126595160Y-106959200D01*
X126595160Y-106959200D02*
X126471350Y-106835390D01*
X126471350Y-106835390D02*
X126409446Y-106587771D01*
X126409446Y-106587771D02*
X126409446Y-106154438D01*
X126409446Y-106154438D02*
X126471350Y-105906819D01*
X126471350Y-105906819D02*
X126595160Y-105783009D01*
X126595160Y-105783009D02*
X126718969Y-105721104D01*
X144370588Y-134553438D02*
X144275350Y-134505819D01*
X144275350Y-134505819D02*
X144132493Y-134505819D01*
X144132493Y-134505819D02*
X143989636Y-134553438D01*
X143989636Y-134553438D02*
X143894398Y-134648676D01*
X143894398Y-134648676D02*
X143846779Y-134743914D01*
X143846779Y-134743914D02*
X143799160Y-134934390D01*
X143799160Y-134934390D02*
X143799160Y-135077247D01*
X143799160Y-135077247D02*
X143846779Y-135267723D01*
X143846779Y-135267723D02*
X143894398Y-135362961D01*
X143894398Y-135362961D02*
X143989636Y-135458200D01*
X143989636Y-135458200D02*
X144132493Y-135505819D01*
X144132493Y-135505819D02*
X144227731Y-135505819D01*
X144227731Y-135505819D02*
X144370588Y-135458200D01*
X144370588Y-135458200D02*
X144418207Y-135410580D01*
X144418207Y-135410580D02*
X144418207Y-135077247D01*
X144418207Y-135077247D02*
X144227731Y-135077247D01*
X144846779Y-135505819D02*
X144846779Y-134505819D01*
X144846779Y-134505819D02*
X145418207Y-135505819D01*
X145418207Y-135505819D02*
X145418207Y-134505819D01*
X145894398Y-135505819D02*
X145894398Y-134505819D01*
X145894398Y-134505819D02*
X146132493Y-134505819D01*
X146132493Y-134505819D02*
X146275350Y-134553438D01*
X146275350Y-134553438D02*
X146370588Y-134648676D01*
X146370588Y-134648676D02*
X146418207Y-134743914D01*
X146418207Y-134743914D02*
X146465826Y-134934390D01*
X146465826Y-134934390D02*
X146465826Y-135077247D01*
X146465826Y-135077247D02*
X146418207Y-135267723D01*
X146418207Y-135267723D02*
X146370588Y-135362961D01*
X146370588Y-135362961D02*
X146275350Y-135458200D01*
X146275350Y-135458200D02*
X146132493Y-135505819D01*
X146132493Y-135505819D02*
X145894398Y-135505819D01*
X147561065Y-134505819D02*
X148180112Y-134505819D01*
X148180112Y-134505819D02*
X147846779Y-134886771D01*
X147846779Y-134886771D02*
X147989636Y-134886771D01*
X147989636Y-134886771D02*
X148084874Y-134934390D01*
X148084874Y-134934390D02*
X148132493Y-134982009D01*
X148132493Y-134982009D02*
X148180112Y-135077247D01*
X148180112Y-135077247D02*
X148180112Y-135315342D01*
X148180112Y-135315342D02*
X148132493Y-135410580D01*
X148132493Y-135410580D02*
X148084874Y-135458200D01*
X148084874Y-135458200D02*
X147989636Y-135505819D01*
X147989636Y-135505819D02*
X147703922Y-135505819D01*
X147703922Y-135505819D02*
X147608684Y-135458200D01*
X147608684Y-135458200D02*
X147561065Y-135410580D01*
X148465827Y-134505819D02*
X148799160Y-135505819D01*
X148799160Y-135505819D02*
X149132493Y-134505819D01*
X150180113Y-135458200D02*
X150322970Y-135505819D01*
X150322970Y-135505819D02*
X150561065Y-135505819D01*
X150561065Y-135505819D02*
X150656303Y-135458200D01*
X150656303Y-135458200D02*
X150703922Y-135410580D01*
X150703922Y-135410580D02*
X150751541Y-135315342D01*
X150751541Y-135315342D02*
X150751541Y-135220104D01*
X150751541Y-135220104D02*
X150703922Y-135124866D01*
X150703922Y-135124866D02*
X150656303Y-135077247D01*
X150656303Y-135077247D02*
X150561065Y-135029628D01*
X150561065Y-135029628D02*
X150370589Y-134982009D01*
X150370589Y-134982009D02*
X150275351Y-134934390D01*
X150275351Y-134934390D02*
X150227732Y-134886771D01*
X150227732Y-134886771D02*
X150180113Y-134791533D01*
X150180113Y-134791533D02*
X150180113Y-134696295D01*
X150180113Y-134696295D02*
X150227732Y-134601057D01*
X150227732Y-134601057D02*
X150275351Y-134553438D01*
X150275351Y-134553438D02*
X150370589Y-134505819D01*
X150370589Y-134505819D02*
X150608684Y-134505819D01*
X150608684Y-134505819D02*
X150751541Y-134553438D01*
X151751541Y-135410580D02*
X151703922Y-135458200D01*
X151703922Y-135458200D02*
X151561065Y-135505819D01*
X151561065Y-135505819D02*
X151465827Y-135505819D01*
X151465827Y-135505819D02*
X151322970Y-135458200D01*
X151322970Y-135458200D02*
X151227732Y-135362961D01*
X151227732Y-135362961D02*
X151180113Y-135267723D01*
X151180113Y-135267723D02*
X151132494Y-135077247D01*
X151132494Y-135077247D02*
X151132494Y-134934390D01*
X151132494Y-134934390D02*
X151180113Y-134743914D01*
X151180113Y-134743914D02*
X151227732Y-134648676D01*
X151227732Y-134648676D02*
X151322970Y-134553438D01*
X151322970Y-134553438D02*
X151465827Y-134505819D01*
X151465827Y-134505819D02*
X151561065Y-134505819D01*
X151561065Y-134505819D02*
X151703922Y-134553438D01*
X151703922Y-134553438D02*
X151751541Y-134601057D01*
X152656303Y-135505819D02*
X152180113Y-135505819D01*
X152180113Y-135505819D02*
X152180113Y-134505819D01*
X153703923Y-135458200D02*
X153846780Y-135505819D01*
X153846780Y-135505819D02*
X154084875Y-135505819D01*
X154084875Y-135505819D02*
X154180113Y-135458200D01*
X154180113Y-135458200D02*
X154227732Y-135410580D01*
X154227732Y-135410580D02*
X154275351Y-135315342D01*
X154275351Y-135315342D02*
X154275351Y-135220104D01*
X154275351Y-135220104D02*
X154227732Y-135124866D01*
X154227732Y-135124866D02*
X154180113Y-135077247D01*
X154180113Y-135077247D02*
X154084875Y-135029628D01*
X154084875Y-135029628D02*
X153894399Y-134982009D01*
X153894399Y-134982009D02*
X153799161Y-134934390D01*
X153799161Y-134934390D02*
X153751542Y-134886771D01*
X153751542Y-134886771D02*
X153703923Y-134791533D01*
X153703923Y-134791533D02*
X153703923Y-134696295D01*
X153703923Y-134696295D02*
X153751542Y-134601057D01*
X153751542Y-134601057D02*
X153799161Y-134553438D01*
X153799161Y-134553438D02*
X153894399Y-134505819D01*
X153894399Y-134505819D02*
X154132494Y-134505819D01*
X154132494Y-134505819D02*
X154275351Y-134553438D01*
X154703923Y-135505819D02*
X154703923Y-134505819D01*
X154703923Y-134505819D02*
X154942018Y-134505819D01*
X154942018Y-134505819D02*
X155084875Y-134553438D01*
X155084875Y-134553438D02*
X155180113Y-134648676D01*
X155180113Y-134648676D02*
X155227732Y-134743914D01*
X155227732Y-134743914D02*
X155275351Y-134934390D01*
X155275351Y-134934390D02*
X155275351Y-135077247D01*
X155275351Y-135077247D02*
X155227732Y-135267723D01*
X155227732Y-135267723D02*
X155180113Y-135362961D01*
X155180113Y-135362961D02*
X155084875Y-135458200D01*
X155084875Y-135458200D02*
X154942018Y-135505819D01*
X154942018Y-135505819D02*
X154703923Y-135505819D01*
X155656304Y-135220104D02*
X156132494Y-135220104D01*
X155561066Y-135505819D02*
X155894399Y-134505819D01*
X155894399Y-134505819D02*
X156227732Y-135505819D01*
X139766922Y-132600819D02*
X140100255Y-133600819D01*
X140100255Y-133600819D02*
X140433588Y-132600819D01*
X140766922Y-133077009D02*
X141100255Y-133077009D01*
X141243112Y-133600819D02*
X140766922Y-133600819D01*
X140766922Y-133600819D02*
X140766922Y-132600819D01*
X140766922Y-132600819D02*
X141243112Y-132600819D01*
X141671684Y-133600819D02*
X141671684Y-132600819D01*
X141671684Y-132600819D02*
X142005017Y-133315104D01*
X142005017Y-133315104D02*
X142338350Y-132600819D01*
X142338350Y-132600819D02*
X142338350Y-133600819D01*
X143290731Y-133600819D02*
X142814541Y-133600819D01*
X142814541Y-133600819D02*
X142814541Y-132600819D01*
X143528827Y-132600819D02*
X144195493Y-132600819D01*
X144195493Y-132600819D02*
X143766922Y-133600819D01*
X144481208Y-132600819D02*
X145147874Y-132600819D01*
X145147874Y-132600819D02*
X144719303Y-133600819D01*
X145719303Y-132600819D02*
X145814541Y-132600819D01*
X145814541Y-132600819D02*
X145909779Y-132648438D01*
X145909779Y-132648438D02*
X145957398Y-132696057D01*
X145957398Y-132696057D02*
X146005017Y-132791295D01*
X146005017Y-132791295D02*
X146052636Y-132981771D01*
X146052636Y-132981771D02*
X146052636Y-133219866D01*
X146052636Y-133219866D02*
X146005017Y-133410342D01*
X146005017Y-133410342D02*
X145957398Y-133505580D01*
X145957398Y-133505580D02*
X145909779Y-133553200D01*
X145909779Y-133553200D02*
X145814541Y-133600819D01*
X145814541Y-133600819D02*
X145719303Y-133600819D01*
X145719303Y-133600819D02*
X145624065Y-133553200D01*
X145624065Y-133553200D02*
X145576446Y-133505580D01*
X145576446Y-133505580D02*
X145528827Y-133410342D01*
X145528827Y-133410342D02*
X145481208Y-133219866D01*
X145481208Y-133219866D02*
X145481208Y-132981771D01*
X145481208Y-132981771D02*
X145528827Y-132791295D01*
X145528827Y-132791295D02*
X145576446Y-132696057D01*
X145576446Y-132696057D02*
X145624065Y-132648438D01*
X145624065Y-132648438D02*
X145719303Y-132600819D01*
X146671684Y-132600819D02*
X146766922Y-132600819D01*
X146766922Y-132600819D02*
X146862160Y-132648438D01*
X146862160Y-132648438D02*
X146909779Y-132696057D01*
X146909779Y-132696057D02*
X146957398Y-132791295D01*
X146957398Y-132791295D02*
X147005017Y-132981771D01*
X147005017Y-132981771D02*
X147005017Y-133219866D01*
X147005017Y-133219866D02*
X146957398Y-133410342D01*
X146957398Y-133410342D02*
X146909779Y-133505580D01*
X146909779Y-133505580D02*
X146862160Y-133553200D01*
X146862160Y-133553200D02*
X146766922Y-133600819D01*
X146766922Y-133600819D02*
X146671684Y-133600819D01*
X146671684Y-133600819D02*
X146576446Y-133553200D01*
X146576446Y-133553200D02*
X146528827Y-133505580D01*
X146528827Y-133505580D02*
X146481208Y-133410342D01*
X146481208Y-133410342D02*
X146433589Y-133219866D01*
X146433589Y-133219866D02*
X146433589Y-132981771D01*
X146433589Y-132981771D02*
X146481208Y-132791295D01*
X146481208Y-132791295D02*
X146528827Y-132696057D01*
X146528827Y-132696057D02*
X146576446Y-132648438D01*
X146576446Y-132648438D02*
X146671684Y-132600819D01*
X148671684Y-133600819D02*
X148195494Y-133600819D01*
X148195494Y-133600819D02*
X148195494Y-132600819D01*
X149005018Y-133600819D02*
X149005018Y-132600819D01*
X150005017Y-132648438D02*
X149909779Y-132600819D01*
X149909779Y-132600819D02*
X149766922Y-132600819D01*
X149766922Y-132600819D02*
X149624065Y-132648438D01*
X149624065Y-132648438D02*
X149528827Y-132743676D01*
X149528827Y-132743676D02*
X149481208Y-132838914D01*
X149481208Y-132838914D02*
X149433589Y-133029390D01*
X149433589Y-133029390D02*
X149433589Y-133172247D01*
X149433589Y-133172247D02*
X149481208Y-133362723D01*
X149481208Y-133362723D02*
X149528827Y-133457961D01*
X149528827Y-133457961D02*
X149624065Y-133553200D01*
X149624065Y-133553200D02*
X149766922Y-133600819D01*
X149766922Y-133600819D02*
X149862160Y-133600819D01*
X149862160Y-133600819D02*
X150005017Y-133553200D01*
X150005017Y-133553200D02*
X150052636Y-133505580D01*
X150052636Y-133505580D02*
X150052636Y-133172247D01*
X150052636Y-133172247D02*
X149862160Y-133172247D01*
X150481208Y-133600819D02*
X150481208Y-132600819D01*
X150481208Y-133077009D02*
X151052636Y-133077009D01*
X151052636Y-133600819D02*
X151052636Y-132600819D01*
X151385970Y-132600819D02*
X151957398Y-132600819D01*
X151671684Y-133600819D02*
X151671684Y-132600819D01*
X153052637Y-133600819D02*
X153052637Y-132600819D01*
X153052637Y-132600819D02*
X153385970Y-133315104D01*
X153385970Y-133315104D02*
X153719303Y-132600819D01*
X153719303Y-132600819D02*
X153719303Y-133600819D01*
X154195494Y-133077009D02*
X154528827Y-133077009D01*
X154671684Y-133600819D02*
X154195494Y-133600819D01*
X154195494Y-133600819D02*
X154195494Y-132600819D01*
X154195494Y-132600819D02*
X154671684Y-132600819D01*
X154957399Y-132600819D02*
X155528827Y-132600819D01*
X155243113Y-133600819D02*
X155243113Y-132600819D01*
X155862161Y-133077009D02*
X156195494Y-133077009D01*
X156338351Y-133600819D02*
X155862161Y-133600819D01*
X155862161Y-133600819D02*
X155862161Y-132600819D01*
X155862161Y-132600819D02*
X156338351Y-132600819D01*
X157338351Y-133600819D02*
X157005018Y-133124628D01*
X156766923Y-133600819D02*
X156766923Y-132600819D01*
X156766923Y-132600819D02*
X157147875Y-132600819D01*
X157147875Y-132600819D02*
X157243113Y-132648438D01*
X157243113Y-132648438D02*
X157290732Y-132696057D01*
X157290732Y-132696057D02*
X157338351Y-132791295D01*
X157338351Y-132791295D02*
X157338351Y-132934152D01*
X157338351Y-132934152D02*
X157290732Y-133029390D01*
X157290732Y-133029390D02*
X157243113Y-133077009D01*
X157243113Y-133077009D02*
X157147875Y-133124628D01*
X157147875Y-133124628D02*
X156766923Y-133124628D01*
X138639779Y-129917819D02*
X138639779Y-128917819D01*
X139211207Y-129917819D02*
X138782636Y-129346390D01*
X139211207Y-128917819D02*
X138639779Y-129489247D01*
X139592160Y-129013057D02*
X139639779Y-128965438D01*
X139639779Y-128965438D02*
X139735017Y-128917819D01*
X139735017Y-128917819D02*
X139973112Y-128917819D01*
X139973112Y-128917819D02*
X140068350Y-128965438D01*
X140068350Y-128965438D02*
X140115969Y-129013057D01*
X140115969Y-129013057D02*
X140163588Y-129108295D01*
X140163588Y-129108295D02*
X140163588Y-129203533D01*
X140163588Y-129203533D02*
X140115969Y-129346390D01*
X140115969Y-129346390D02*
X139544541Y-129917819D01*
X139544541Y-129917819D02*
X140163588Y-129917819D01*
X141020731Y-129251152D02*
X141020731Y-129917819D01*
X140782636Y-128870200D02*
X140544541Y-129584485D01*
X140544541Y-129584485D02*
X141163588Y-129584485D01*
X141544541Y-129394009D02*
X141877874Y-129394009D01*
X142020731Y-129917819D02*
X141544541Y-129917819D01*
X141544541Y-129917819D02*
X141544541Y-128917819D01*
X141544541Y-128917819D02*
X142020731Y-128917819D01*
X142925493Y-129917819D02*
X142449303Y-129917819D01*
X142449303Y-129917819D02*
X142449303Y-128917819D01*
X143258827Y-129394009D02*
X143592160Y-129394009D01*
X143735017Y-129917819D02*
X143258827Y-129917819D01*
X143258827Y-129917819D02*
X143258827Y-128917819D01*
X143258827Y-128917819D02*
X143735017Y-128917819D01*
X144735017Y-129822580D02*
X144687398Y-129870200D01*
X144687398Y-129870200D02*
X144544541Y-129917819D01*
X144544541Y-129917819D02*
X144449303Y-129917819D01*
X144449303Y-129917819D02*
X144306446Y-129870200D01*
X144306446Y-129870200D02*
X144211208Y-129774961D01*
X144211208Y-129774961D02*
X144163589Y-129679723D01*
X144163589Y-129679723D02*
X144115970Y-129489247D01*
X144115970Y-129489247D02*
X144115970Y-129346390D01*
X144115970Y-129346390D02*
X144163589Y-129155914D01*
X144163589Y-129155914D02*
X144211208Y-129060676D01*
X144211208Y-129060676D02*
X144306446Y-128965438D01*
X144306446Y-128965438D02*
X144449303Y-128917819D01*
X144449303Y-128917819D02*
X144544541Y-128917819D01*
X144544541Y-128917819D02*
X144687398Y-128965438D01*
X144687398Y-128965438D02*
X144735017Y-129013057D01*
X145020732Y-128917819D02*
X145592160Y-128917819D01*
X145306446Y-129917819D02*
X145306446Y-128917819D01*
X146496922Y-129917819D02*
X146163589Y-129441628D01*
X145925494Y-129917819D02*
X145925494Y-128917819D01*
X145925494Y-128917819D02*
X146306446Y-128917819D01*
X146306446Y-128917819D02*
X146401684Y-128965438D01*
X146401684Y-128965438D02*
X146449303Y-129013057D01*
X146449303Y-129013057D02*
X146496922Y-129108295D01*
X146496922Y-129108295D02*
X146496922Y-129251152D01*
X146496922Y-129251152D02*
X146449303Y-129346390D01*
X146449303Y-129346390D02*
X146401684Y-129394009D01*
X146401684Y-129394009D02*
X146306446Y-129441628D01*
X146306446Y-129441628D02*
X145925494Y-129441628D01*
X147115970Y-128917819D02*
X147306446Y-128917819D01*
X147306446Y-128917819D02*
X147401684Y-128965438D01*
X147401684Y-128965438D02*
X147496922Y-129060676D01*
X147496922Y-129060676D02*
X147544541Y-129251152D01*
X147544541Y-129251152D02*
X147544541Y-129584485D01*
X147544541Y-129584485D02*
X147496922Y-129774961D01*
X147496922Y-129774961D02*
X147401684Y-129870200D01*
X147401684Y-129870200D02*
X147306446Y-129917819D01*
X147306446Y-129917819D02*
X147115970Y-129917819D01*
X147115970Y-129917819D02*
X147020732Y-129870200D01*
X147020732Y-129870200D02*
X146925494Y-129774961D01*
X146925494Y-129774961D02*
X146877875Y-129584485D01*
X146877875Y-129584485D02*
X146877875Y-129251152D01*
X146877875Y-129251152D02*
X146925494Y-129060676D01*
X146925494Y-129060676D02*
X147020732Y-128965438D01*
X147020732Y-128965438D02*
X147115970Y-128917819D01*
X147973113Y-129917819D02*
X147973113Y-128917819D01*
X147973113Y-128917819D02*
X148544541Y-129917819D01*
X148544541Y-129917819D02*
X148544541Y-128917819D01*
X149020732Y-129917819D02*
X149020732Y-128917819D01*
X150068350Y-129822580D02*
X150020731Y-129870200D01*
X150020731Y-129870200D02*
X149877874Y-129917819D01*
X149877874Y-129917819D02*
X149782636Y-129917819D01*
X149782636Y-129917819D02*
X149639779Y-129870200D01*
X149639779Y-129870200D02*
X149544541Y-129774961D01*
X149544541Y-129774961D02*
X149496922Y-129679723D01*
X149496922Y-129679723D02*
X149449303Y-129489247D01*
X149449303Y-129489247D02*
X149449303Y-129346390D01*
X149449303Y-129346390D02*
X149496922Y-129155914D01*
X149496922Y-129155914D02*
X149544541Y-129060676D01*
X149544541Y-129060676D02*
X149639779Y-128965438D01*
X149639779Y-128965438D02*
X149782636Y-128917819D01*
X149782636Y-128917819D02*
X149877874Y-128917819D01*
X149877874Y-128917819D02*
X150020731Y-128965438D01*
X150020731Y-128965438D02*
X150068350Y-129013057D01*
X150449303Y-129870200D02*
X150592160Y-129917819D01*
X150592160Y-129917819D02*
X150830255Y-129917819D01*
X150830255Y-129917819D02*
X150925493Y-129870200D01*
X150925493Y-129870200D02*
X150973112Y-129822580D01*
X150973112Y-129822580D02*
X151020731Y-129727342D01*
X151020731Y-129727342D02*
X151020731Y-129632104D01*
X151020731Y-129632104D02*
X150973112Y-129536866D01*
X150973112Y-129536866D02*
X150925493Y-129489247D01*
X150925493Y-129489247D02*
X150830255Y-129441628D01*
X150830255Y-129441628D02*
X150639779Y-129394009D01*
X150639779Y-129394009D02*
X150544541Y-129346390D01*
X150544541Y-129346390D02*
X150496922Y-129298771D01*
X150496922Y-129298771D02*
X150449303Y-129203533D01*
X150449303Y-129203533D02*
X150449303Y-129108295D01*
X150449303Y-129108295D02*
X150496922Y-129013057D01*
X150496922Y-129013057D02*
X150544541Y-128965438D01*
X150544541Y-128965438D02*
X150639779Y-128917819D01*
X150639779Y-128917819D02*
X150877874Y-128917819D01*
X150877874Y-128917819D02*
X151020731Y-128965438D01*
X152163589Y-129013057D02*
X152211208Y-128965438D01*
X152211208Y-128965438D02*
X152306446Y-128917819D01*
X152306446Y-128917819D02*
X152544541Y-128917819D01*
X152544541Y-128917819D02*
X152639779Y-128965438D01*
X152639779Y-128965438D02*
X152687398Y-129013057D01*
X152687398Y-129013057D02*
X152735017Y-129108295D01*
X152735017Y-129108295D02*
X152735017Y-129203533D01*
X152735017Y-129203533D02*
X152687398Y-129346390D01*
X152687398Y-129346390D02*
X152115970Y-129917819D01*
X152115970Y-129917819D02*
X152735017Y-129917819D01*
X153354065Y-128917819D02*
X153449303Y-128917819D01*
X153449303Y-128917819D02*
X153544541Y-128965438D01*
X153544541Y-128965438D02*
X153592160Y-129013057D01*
X153592160Y-129013057D02*
X153639779Y-129108295D01*
X153639779Y-129108295D02*
X153687398Y-129298771D01*
X153687398Y-129298771D02*
X153687398Y-129536866D01*
X153687398Y-129536866D02*
X153639779Y-129727342D01*
X153639779Y-129727342D02*
X153592160Y-129822580D01*
X153592160Y-129822580D02*
X153544541Y-129870200D01*
X153544541Y-129870200D02*
X153449303Y-129917819D01*
X153449303Y-129917819D02*
X153354065Y-129917819D01*
X153354065Y-129917819D02*
X153258827Y-129870200D01*
X153258827Y-129870200D02*
X153211208Y-129822580D01*
X153211208Y-129822580D02*
X153163589Y-129727342D01*
X153163589Y-129727342D02*
X153115970Y-129536866D01*
X153115970Y-129536866D02*
X153115970Y-129298771D01*
X153115970Y-129298771D02*
X153163589Y-129108295D01*
X153163589Y-129108295D02*
X153211208Y-129013057D01*
X153211208Y-129013057D02*
X153258827Y-128965438D01*
X153258827Y-128965438D02*
X153354065Y-128917819D01*
X154068351Y-129013057D02*
X154115970Y-128965438D01*
X154115970Y-128965438D02*
X154211208Y-128917819D01*
X154211208Y-128917819D02*
X154449303Y-128917819D01*
X154449303Y-128917819D02*
X154544541Y-128965438D01*
X154544541Y-128965438D02*
X154592160Y-129013057D01*
X154592160Y-129013057D02*
X154639779Y-129108295D01*
X154639779Y-129108295D02*
X154639779Y-129203533D01*
X154639779Y-129203533D02*
X154592160Y-129346390D01*
X154592160Y-129346390D02*
X154020732Y-129917819D01*
X154020732Y-129917819D02*
X154639779Y-129917819D01*
X155496922Y-129251152D02*
X155496922Y-129917819D01*
X155258827Y-128870200D02*
X155020732Y-129584485D01*
X155020732Y-129584485D02*
X155639779Y-129584485D01*
X151117541Y-105496628D02*
X151974684Y-105496628D01*
X151546112Y-106996628D02*
X151546112Y-105496628D01*
X153546112Y-105425200D02*
X152260398Y-107353771D01*
X154546112Y-106210914D02*
X154046112Y-106210914D01*
X154046112Y-106996628D02*
X154046112Y-105496628D01*
X154046112Y-105496628D02*
X154760398Y-105496628D01*
X120256541Y-130822819D02*
X120875588Y-130822819D01*
X120875588Y-130822819D02*
X120542255Y-131203771D01*
X120542255Y-131203771D02*
X120685112Y-131203771D01*
X120685112Y-131203771D02*
X120780350Y-131251390D01*
X120780350Y-131251390D02*
X120827969Y-131299009D01*
X120827969Y-131299009D02*
X120875588Y-131394247D01*
X120875588Y-131394247D02*
X120875588Y-131632342D01*
X120875588Y-131632342D02*
X120827969Y-131727580D01*
X120827969Y-131727580D02*
X120780350Y-131775200D01*
X120780350Y-131775200D02*
X120685112Y-131822819D01*
X120685112Y-131822819D02*
X120399398Y-131822819D01*
X120399398Y-131822819D02*
X120304160Y-131775200D01*
X120304160Y-131775200D02*
X120256541Y-131727580D01*
X121161303Y-130822819D02*
X121494636Y-131822819D01*
X121494636Y-131822819D02*
X121827969Y-130822819D01*
X123447017Y-130870438D02*
X123351779Y-130822819D01*
X123351779Y-130822819D02*
X123208922Y-130822819D01*
X123208922Y-130822819D02*
X123066065Y-130870438D01*
X123066065Y-130870438D02*
X122970827Y-130965676D01*
X122970827Y-130965676D02*
X122923208Y-131060914D01*
X122923208Y-131060914D02*
X122875589Y-131251390D01*
X122875589Y-131251390D02*
X122875589Y-131394247D01*
X122875589Y-131394247D02*
X122923208Y-131584723D01*
X122923208Y-131584723D02*
X122970827Y-131679961D01*
X122970827Y-131679961D02*
X123066065Y-131775200D01*
X123066065Y-131775200D02*
X123208922Y-131822819D01*
X123208922Y-131822819D02*
X123304160Y-131822819D01*
X123304160Y-131822819D02*
X123447017Y-131775200D01*
X123447017Y-131775200D02*
X123494636Y-131727580D01*
X123494636Y-131727580D02*
X123494636Y-131394247D01*
X123494636Y-131394247D02*
X123304160Y-131394247D01*
X123923208Y-131822819D02*
X123923208Y-130822819D01*
X123923208Y-130822819D02*
X124494636Y-131822819D01*
X124494636Y-131822819D02*
X124494636Y-130822819D01*
X124970827Y-131822819D02*
X124970827Y-130822819D01*
X124970827Y-130822819D02*
X125208922Y-130822819D01*
X125208922Y-130822819D02*
X125351779Y-130870438D01*
X125351779Y-130870438D02*
X125447017Y-130965676D01*
X125447017Y-130965676D02*
X125494636Y-131060914D01*
X125494636Y-131060914D02*
X125542255Y-131251390D01*
X125542255Y-131251390D02*
X125542255Y-131394247D01*
X125542255Y-131394247D02*
X125494636Y-131584723D01*
X125494636Y-131584723D02*
X125447017Y-131679961D01*
X125447017Y-131679961D02*
X125351779Y-131775200D01*
X125351779Y-131775200D02*
X125208922Y-131822819D01*
X125208922Y-131822819D02*
X124970827Y-131822819D01*
X126685113Y-131775200D02*
X126827970Y-131822819D01*
X126827970Y-131822819D02*
X127066065Y-131822819D01*
X127066065Y-131822819D02*
X127161303Y-131775200D01*
X127161303Y-131775200D02*
X127208922Y-131727580D01*
X127208922Y-131727580D02*
X127256541Y-131632342D01*
X127256541Y-131632342D02*
X127256541Y-131537104D01*
X127256541Y-131537104D02*
X127208922Y-131441866D01*
X127208922Y-131441866D02*
X127161303Y-131394247D01*
X127161303Y-131394247D02*
X127066065Y-131346628D01*
X127066065Y-131346628D02*
X126875589Y-131299009D01*
X126875589Y-131299009D02*
X126780351Y-131251390D01*
X126780351Y-131251390D02*
X126732732Y-131203771D01*
X126732732Y-131203771D02*
X126685113Y-131108533D01*
X126685113Y-131108533D02*
X126685113Y-131013295D01*
X126685113Y-131013295D02*
X126732732Y-130918057D01*
X126732732Y-130918057D02*
X126780351Y-130870438D01*
X126780351Y-130870438D02*
X126875589Y-130822819D01*
X126875589Y-130822819D02*
X127113684Y-130822819D01*
X127113684Y-130822819D02*
X127256541Y-130870438D01*
X128256541Y-131727580D02*
X128208922Y-131775200D01*
X128208922Y-131775200D02*
X128066065Y-131822819D01*
X128066065Y-131822819D02*
X127970827Y-131822819D01*
X127970827Y-131822819D02*
X127827970Y-131775200D01*
X127827970Y-131775200D02*
X127732732Y-131679961D01*
X127732732Y-131679961D02*
X127685113Y-131584723D01*
X127685113Y-131584723D02*
X127637494Y-131394247D01*
X127637494Y-131394247D02*
X127637494Y-131251390D01*
X127637494Y-131251390D02*
X127685113Y-131060914D01*
X127685113Y-131060914D02*
X127732732Y-130965676D01*
X127732732Y-130965676D02*
X127827970Y-130870438D01*
X127827970Y-130870438D02*
X127970827Y-130822819D01*
X127970827Y-130822819D02*
X128066065Y-130822819D01*
X128066065Y-130822819D02*
X128208922Y-130870438D01*
X128208922Y-130870438D02*
X128256541Y-130918057D01*
X129161303Y-131822819D02*
X128685113Y-131822819D01*
X128685113Y-131822819D02*
X128685113Y-130822819D01*
X130208923Y-131775200D02*
X130351780Y-131822819D01*
X130351780Y-131822819D02*
X130589875Y-131822819D01*
X130589875Y-131822819D02*
X130685113Y-131775200D01*
X130685113Y-131775200D02*
X130732732Y-131727580D01*
X130732732Y-131727580D02*
X130780351Y-131632342D01*
X130780351Y-131632342D02*
X130780351Y-131537104D01*
X130780351Y-131537104D02*
X130732732Y-131441866D01*
X130732732Y-131441866D02*
X130685113Y-131394247D01*
X130685113Y-131394247D02*
X130589875Y-131346628D01*
X130589875Y-131346628D02*
X130399399Y-131299009D01*
X130399399Y-131299009D02*
X130304161Y-131251390D01*
X130304161Y-131251390D02*
X130256542Y-131203771D01*
X130256542Y-131203771D02*
X130208923Y-131108533D01*
X130208923Y-131108533D02*
X130208923Y-131013295D01*
X130208923Y-131013295D02*
X130256542Y-130918057D01*
X130256542Y-130918057D02*
X130304161Y-130870438D01*
X130304161Y-130870438D02*
X130399399Y-130822819D01*
X130399399Y-130822819D02*
X130637494Y-130822819D01*
X130637494Y-130822819D02*
X130780351Y-130870438D01*
X131208923Y-131822819D02*
X131208923Y-130822819D01*
X131208923Y-130822819D02*
X131447018Y-130822819D01*
X131447018Y-130822819D02*
X131589875Y-130870438D01*
X131589875Y-130870438D02*
X131685113Y-130965676D01*
X131685113Y-130965676D02*
X131732732Y-131060914D01*
X131732732Y-131060914D02*
X131780351Y-131251390D01*
X131780351Y-131251390D02*
X131780351Y-131394247D01*
X131780351Y-131394247D02*
X131732732Y-131584723D01*
X131732732Y-131584723D02*
X131685113Y-131679961D01*
X131685113Y-131679961D02*
X131589875Y-131775200D01*
X131589875Y-131775200D02*
X131447018Y-131822819D01*
X131447018Y-131822819D02*
X131208923Y-131822819D01*
X132161304Y-131537104D02*
X132637494Y-131537104D01*
X132066066Y-131822819D02*
X132399399Y-130822819D01*
X132399399Y-130822819D02*
X132732732Y-131822819D01*
X137107826Y-112203628D02*
X137107826Y-110703628D01*
X137107826Y-110703628D02*
X137607826Y-111775057D01*
X137607826Y-111775057D02*
X138107826Y-110703628D01*
X138107826Y-110703628D02*
X138107826Y-112203628D01*
X139107827Y-110703628D02*
X139393541Y-110703628D01*
X139393541Y-110703628D02*
X139536398Y-110775057D01*
X139536398Y-110775057D02*
X139679255Y-110917914D01*
X139679255Y-110917914D02*
X139750684Y-111203628D01*
X139750684Y-111203628D02*
X139750684Y-111703628D01*
X139750684Y-111703628D02*
X139679255Y-111989342D01*
X139679255Y-111989342D02*
X139536398Y-112132200D01*
X139536398Y-112132200D02*
X139393541Y-112203628D01*
X139393541Y-112203628D02*
X139107827Y-112203628D01*
X139107827Y-112203628D02*
X138964970Y-112132200D01*
X138964970Y-112132200D02*
X138822112Y-111989342D01*
X138822112Y-111989342D02*
X138750684Y-111703628D01*
X138750684Y-111703628D02*
X138750684Y-111203628D01*
X138750684Y-111203628D02*
X138822112Y-110917914D01*
X138822112Y-110917914D02*
X138964970Y-110775057D01*
X138964970Y-110775057D02*
X139107827Y-110703628D01*
X140393541Y-112203628D02*
X140393541Y-110703628D01*
X140393541Y-110703628D02*
X140750684Y-110703628D01*
X140750684Y-110703628D02*
X140964970Y-110775057D01*
X140964970Y-110775057D02*
X141107827Y-110917914D01*
X141107827Y-110917914D02*
X141179256Y-111060771D01*
X141179256Y-111060771D02*
X141250684Y-111346485D01*
X141250684Y-111346485D02*
X141250684Y-111560771D01*
X141250684Y-111560771D02*
X141179256Y-111846485D01*
X141179256Y-111846485D02*
X141107827Y-111989342D01*
X141107827Y-111989342D02*
X140964970Y-112132200D01*
X140964970Y-112132200D02*
X140750684Y-112203628D01*
X140750684Y-112203628D02*
X140393541Y-112203628D01*
X141893541Y-111417914D02*
X142393541Y-111417914D01*
X142607827Y-112203628D02*
X141893541Y-112203628D01*
X141893541Y-112203628D02*
X141893541Y-110703628D01*
X141893541Y-110703628D02*
X142607827Y-110703628D01*
X146259779Y-127504819D02*
X146259779Y-126504819D01*
X146831207Y-127504819D02*
X146402636Y-126933390D01*
X146831207Y-126504819D02*
X146259779Y-127076247D01*
X147212160Y-126600057D02*
X147259779Y-126552438D01*
X147259779Y-126552438D02*
X147355017Y-126504819D01*
X147355017Y-126504819D02*
X147593112Y-126504819D01*
X147593112Y-126504819D02*
X147688350Y-126552438D01*
X147688350Y-126552438D02*
X147735969Y-126600057D01*
X147735969Y-126600057D02*
X147783588Y-126695295D01*
X147783588Y-126695295D02*
X147783588Y-126790533D01*
X147783588Y-126790533D02*
X147735969Y-126933390D01*
X147735969Y-126933390D02*
X147164541Y-127504819D01*
X147164541Y-127504819D02*
X147783588Y-127504819D01*
X148640731Y-126838152D02*
X148640731Y-127504819D01*
X148402636Y-126457200D02*
X148164541Y-127171485D01*
X148164541Y-127171485D02*
X148783588Y-127171485D01*
X149640731Y-127504819D02*
X149164541Y-127504819D01*
X149164541Y-127504819D02*
X149164541Y-126504819D01*
X149974065Y-127504819D02*
X149974065Y-126504819D01*
X149974065Y-126504819D02*
X150307398Y-127219104D01*
X150307398Y-127219104D02*
X150640731Y-126504819D01*
X150640731Y-126504819D02*
X150640731Y-127504819D01*
X151640731Y-127504819D02*
X151069303Y-127504819D01*
X151355017Y-127504819D02*
X151355017Y-126504819D01*
X151355017Y-126504819D02*
X151259779Y-126647676D01*
X151259779Y-126647676D02*
X151164541Y-126742914D01*
X151164541Y-126742914D02*
X151069303Y-126790533D01*
X152069303Y-127504819D02*
X152069303Y-126504819D01*
X152069303Y-126504819D02*
X152402636Y-127219104D01*
X152402636Y-127219104D02*
X152735969Y-126504819D01*
X152735969Y-126504819D02*
X152735969Y-127504819D01*
X153164541Y-127219104D02*
X153640731Y-127219104D01*
X153069303Y-127504819D02*
X153402636Y-126504819D01*
X153402636Y-126504819D02*
X153735969Y-127504819D01*
X146663580Y-109132666D02*
X146711200Y-109180285D01*
X146711200Y-109180285D02*
X146758819Y-109323142D01*
X146758819Y-109323142D02*
X146758819Y-109418380D01*
X146758819Y-109418380D02*
X146711200Y-109561237D01*
X146711200Y-109561237D02*
X146615961Y-109656475D01*
X146615961Y-109656475D02*
X146520723Y-109704094D01*
X146520723Y-109704094D02*
X146330247Y-109751713D01*
X146330247Y-109751713D02*
X146187390Y-109751713D01*
X146187390Y-109751713D02*
X145996914Y-109704094D01*
X145996914Y-109704094D02*
X145901676Y-109656475D01*
X145901676Y-109656475D02*
X145806438Y-109561237D01*
X145806438Y-109561237D02*
X145758819Y-109418380D01*
X145758819Y-109418380D02*
X145758819Y-109323142D01*
X145758819Y-109323142D02*
X145806438Y-109180285D01*
X145806438Y-109180285D02*
X145854057Y-109132666D01*
X146758819Y-108180285D02*
X146758819Y-108751713D01*
X146758819Y-108465999D02*
X145758819Y-108465999D01*
X145758819Y-108465999D02*
X145901676Y-108561237D01*
X145901676Y-108561237D02*
X145996914Y-108656475D01*
X145996914Y-108656475D02*
X146044533Y-108751713D01*
X131324819Y-133810333D02*
X132039104Y-133810333D01*
X132039104Y-133810333D02*
X132181961Y-133857952D01*
X132181961Y-133857952D02*
X132277200Y-133953190D01*
X132277200Y-133953190D02*
X132324819Y-134096047D01*
X132324819Y-134096047D02*
X132324819Y-134191285D01*
X131658152Y-132905571D02*
X132324819Y-132905571D01*
X131277200Y-133143666D02*
X131991485Y-133381761D01*
X131991485Y-133381761D02*
X131991485Y-132762714D01*
X141694819Y-127333333D02*
X142409104Y-127333333D01*
X142409104Y-127333333D02*
X142551961Y-127380952D01*
X142551961Y-127380952D02*
X142647200Y-127476190D01*
X142647200Y-127476190D02*
X142694819Y-127619047D01*
X142694819Y-127619047D02*
X142694819Y-127714285D01*
X142694819Y-126333333D02*
X142694819Y-126904761D01*
X142694819Y-126619047D02*
X141694819Y-126619047D01*
X141694819Y-126619047D02*
X141837676Y-126714285D01*
X141837676Y-126714285D02*
X141932914Y-126809523D01*
X141932914Y-126809523D02*
X141980533Y-126904761D01*
X155708819Y-137493333D02*
X156423104Y-137493333D01*
X156423104Y-137493333D02*
X156565961Y-137540952D01*
X156565961Y-137540952D02*
X156661200Y-137636190D01*
X156661200Y-137636190D02*
X156708819Y-137779047D01*
X156708819Y-137779047D02*
X156708819Y-137874285D01*
X155708819Y-137112380D02*
X155708819Y-136493333D01*
X155708819Y-136493333D02*
X156089771Y-136826666D01*
X156089771Y-136826666D02*
X156089771Y-136683809D01*
X156089771Y-136683809D02*
X156137390Y-136588571D01*
X156137390Y-136588571D02*
X156185009Y-136540952D01*
X156185009Y-136540952D02*
X156280247Y-136493333D01*
X156280247Y-136493333D02*
X156518342Y-136493333D01*
X156518342Y-136493333D02*
X156613580Y-136540952D01*
X156613580Y-136540952D02*
X156661200Y-136588571D01*
X156661200Y-136588571D02*
X156708819Y-136683809D01*
X156708819Y-136683809D02*
X156708819Y-136969523D01*
X156708819Y-136969523D02*
X156661200Y-137064761D01*
X156661200Y-137064761D02*
X156613580Y-137112380D01*
X141440819Y-137493333D02*
X142155104Y-137493333D01*
X142155104Y-137493333D02*
X142297961Y-137540952D01*
X142297961Y-137540952D02*
X142393200Y-137636190D01*
X142393200Y-137636190D02*
X142440819Y-137779047D01*
X142440819Y-137779047D02*
X142440819Y-137874285D01*
X141536057Y-137064761D02*
X141488438Y-137017142D01*
X141488438Y-137017142D02*
X141440819Y-136921904D01*
X141440819Y-136921904D02*
X141440819Y-136683809D01*
X141440819Y-136683809D02*
X141488438Y-136588571D01*
X141488438Y-136588571D02*
X141536057Y-136540952D01*
X141536057Y-136540952D02*
X141631295Y-136493333D01*
X141631295Y-136493333D02*
X141726533Y-136493333D01*
X141726533Y-136493333D02*
X141869390Y-136540952D01*
X141869390Y-136540952D02*
X142440819Y-137112380D01*
X142440819Y-137112380D02*
X142440819Y-136493333D01*
X151701667Y-124322200D02*
X151844524Y-124369819D01*
X151844524Y-124369819D02*
X152082619Y-124369819D01*
X152082619Y-124369819D02*
X152177857Y-124322200D01*
X152177857Y-124322200D02*
X152225476Y-124274580D01*
X152225476Y-124274580D02*
X152273095Y-124179342D01*
X152273095Y-124179342D02*
X152273095Y-124084104D01*
X152273095Y-124084104D02*
X152225476Y-123988866D01*
X152225476Y-123988866D02*
X152177857Y-123941247D01*
X152177857Y-123941247D02*
X152082619Y-123893628D01*
X152082619Y-123893628D02*
X151892143Y-123846009D01*
X151892143Y-123846009D02*
X151796905Y-123798390D01*
X151796905Y-123798390D02*
X151749286Y-123750771D01*
X151749286Y-123750771D02*
X151701667Y-123655533D01*
X151701667Y-123655533D02*
X151701667Y-123560295D01*
X151701667Y-123560295D02*
X151749286Y-123465057D01*
X151749286Y-123465057D02*
X151796905Y-123417438D01*
X151796905Y-123417438D02*
X151892143Y-123369819D01*
X151892143Y-123369819D02*
X152130238Y-123369819D01*
X152130238Y-123369819D02*
X152273095Y-123417438D01*
X152606429Y-123369819D02*
X152844524Y-124369819D01*
X152844524Y-124369819D02*
X153035000Y-123655533D01*
X153035000Y-123655533D02*
X153225476Y-124369819D01*
X153225476Y-124369819D02*
X153463572Y-123369819D01*
X153796905Y-123465057D02*
X153844524Y-123417438D01*
X153844524Y-123417438D02*
X153939762Y-123369819D01*
X153939762Y-123369819D02*
X154177857Y-123369819D01*
X154177857Y-123369819D02*
X154273095Y-123417438D01*
X154273095Y-123417438D02*
X154320714Y-123465057D01*
X154320714Y-123465057D02*
X154368333Y-123560295D01*
X154368333Y-123560295D02*
X154368333Y-123655533D01*
X154368333Y-123655533D02*
X154320714Y-123798390D01*
X154320714Y-123798390D02*
X153749286Y-124369819D01*
X153749286Y-124369819D02*
X154368333Y-124369819D01*
X136155580Y-116371666D02*
X136203200Y-116419285D01*
X136203200Y-116419285D02*
X136250819Y-116562142D01*
X136250819Y-116562142D02*
X136250819Y-116657380D01*
X136250819Y-116657380D02*
X136203200Y-116800237D01*
X136203200Y-116800237D02*
X136107961Y-116895475D01*
X136107961Y-116895475D02*
X136012723Y-116943094D01*
X136012723Y-116943094D02*
X135822247Y-116990713D01*
X135822247Y-116990713D02*
X135679390Y-116990713D01*
X135679390Y-116990713D02*
X135488914Y-116943094D01*
X135488914Y-116943094D02*
X135393676Y-116895475D01*
X135393676Y-116895475D02*
X135298438Y-116800237D01*
X135298438Y-116800237D02*
X135250819Y-116657380D01*
X135250819Y-116657380D02*
X135250819Y-116562142D01*
X135250819Y-116562142D02*
X135298438Y-116419285D01*
X135298438Y-116419285D02*
X135346057Y-116371666D01*
X135250819Y-115466904D02*
X135250819Y-115943094D01*
X135250819Y-115943094D02*
X135727009Y-115990713D01*
X135727009Y-115990713D02*
X135679390Y-115943094D01*
X135679390Y-115943094D02*
X135631771Y-115847856D01*
X135631771Y-115847856D02*
X135631771Y-115609761D01*
X135631771Y-115609761D02*
X135679390Y-115514523D01*
X135679390Y-115514523D02*
X135727009Y-115466904D01*
X135727009Y-115466904D02*
X135822247Y-115419285D01*
X135822247Y-115419285D02*
X136060342Y-115419285D01*
X136060342Y-115419285D02*
X136155580Y-115466904D01*
X136155580Y-115466904D02*
X136203200Y-115514523D01*
X136203200Y-115514523D02*
X136250819Y-115609761D01*
X136250819Y-115609761D02*
X136250819Y-115847856D01*
X136250819Y-115847856D02*
X136203200Y-115943094D01*
X136203200Y-115943094D02*
X136155580Y-115990713D01*
X132853580Y-119927666D02*
X132901200Y-119975285D01*
X132901200Y-119975285D02*
X132948819Y-120118142D01*
X132948819Y-120118142D02*
X132948819Y-120213380D01*
X132948819Y-120213380D02*
X132901200Y-120356237D01*
X132901200Y-120356237D02*
X132805961Y-120451475D01*
X132805961Y-120451475D02*
X132710723Y-120499094D01*
X132710723Y-120499094D02*
X132520247Y-120546713D01*
X132520247Y-120546713D02*
X132377390Y-120546713D01*
X132377390Y-120546713D02*
X132186914Y-120499094D01*
X132186914Y-120499094D02*
X132091676Y-120451475D01*
X132091676Y-120451475D02*
X131996438Y-120356237D01*
X131996438Y-120356237D02*
X131948819Y-120213380D01*
X131948819Y-120213380D02*
X131948819Y-120118142D01*
X131948819Y-120118142D02*
X131996438Y-119975285D01*
X131996438Y-119975285D02*
X132044057Y-119927666D01*
X132282152Y-119070523D02*
X132948819Y-119070523D01*
X131901200Y-119308618D02*
X132615485Y-119546713D01*
X132615485Y-119546713D02*
X132615485Y-118927666D01*
X132853580Y-111291666D02*
X132901200Y-111339285D01*
X132901200Y-111339285D02*
X132948819Y-111482142D01*
X132948819Y-111482142D02*
X132948819Y-111577380D01*
X132948819Y-111577380D02*
X132901200Y-111720237D01*
X132901200Y-111720237D02*
X132805961Y-111815475D01*
X132805961Y-111815475D02*
X132710723Y-111863094D01*
X132710723Y-111863094D02*
X132520247Y-111910713D01*
X132520247Y-111910713D02*
X132377390Y-111910713D01*
X132377390Y-111910713D02*
X132186914Y-111863094D01*
X132186914Y-111863094D02*
X132091676Y-111815475D01*
X132091676Y-111815475D02*
X131996438Y-111720237D01*
X131996438Y-111720237D02*
X131948819Y-111577380D01*
X131948819Y-111577380D02*
X131948819Y-111482142D01*
X131948819Y-111482142D02*
X131996438Y-111339285D01*
X131996438Y-111339285D02*
X132044057Y-111291666D01*
X131948819Y-110958332D02*
X131948819Y-110339285D01*
X131948819Y-110339285D02*
X132329771Y-110672618D01*
X132329771Y-110672618D02*
X132329771Y-110529761D01*
X132329771Y-110529761D02*
X132377390Y-110434523D01*
X132377390Y-110434523D02*
X132425009Y-110386904D01*
X132425009Y-110386904D02*
X132520247Y-110339285D01*
X132520247Y-110339285D02*
X132758342Y-110339285D01*
X132758342Y-110339285D02*
X132853580Y-110386904D01*
X132853580Y-110386904D02*
X132901200Y-110434523D01*
X132901200Y-110434523D02*
X132948819Y-110529761D01*
X132948819Y-110529761D02*
X132948819Y-110815475D01*
X132948819Y-110815475D02*
X132901200Y-110910713D01*
X132901200Y-110910713D02*
X132853580Y-110958332D01*
X138366667Y-120852200D02*
X138509524Y-120899819D01*
X138509524Y-120899819D02*
X138747619Y-120899819D01*
X138747619Y-120899819D02*
X138842857Y-120852200D01*
X138842857Y-120852200D02*
X138890476Y-120804580D01*
X138890476Y-120804580D02*
X138938095Y-120709342D01*
X138938095Y-120709342D02*
X138938095Y-120614104D01*
X138938095Y-120614104D02*
X138890476Y-120518866D01*
X138890476Y-120518866D02*
X138842857Y-120471247D01*
X138842857Y-120471247D02*
X138747619Y-120423628D01*
X138747619Y-120423628D02*
X138557143Y-120376009D01*
X138557143Y-120376009D02*
X138461905Y-120328390D01*
X138461905Y-120328390D02*
X138414286Y-120280771D01*
X138414286Y-120280771D02*
X138366667Y-120185533D01*
X138366667Y-120185533D02*
X138366667Y-120090295D01*
X138366667Y-120090295D02*
X138414286Y-119995057D01*
X138414286Y-119995057D02*
X138461905Y-119947438D01*
X138461905Y-119947438D02*
X138557143Y-119899819D01*
X138557143Y-119899819D02*
X138795238Y-119899819D01*
X138795238Y-119899819D02*
X138938095Y-119947438D01*
X139271429Y-119899819D02*
X139509524Y-120899819D01*
X139509524Y-120899819D02*
X139700000Y-120185533D01*
X139700000Y-120185533D02*
X139890476Y-120899819D01*
X139890476Y-120899819D02*
X140128572Y-119899819D01*
X140985714Y-119899819D02*
X140509524Y-119899819D01*
X140509524Y-119899819D02*
X140461905Y-120376009D01*
X140461905Y-120376009D02*
X140509524Y-120328390D01*
X140509524Y-120328390D02*
X140604762Y-120280771D01*
X140604762Y-120280771D02*
X140842857Y-120280771D01*
X140842857Y-120280771D02*
X140938095Y-120328390D01*
X140938095Y-120328390D02*
X140985714Y-120376009D01*
X140985714Y-120376009D02*
X141033333Y-120471247D01*
X141033333Y-120471247D02*
X141033333Y-120709342D01*
X141033333Y-120709342D02*
X140985714Y-120804580D01*
X140985714Y-120804580D02*
X140938095Y-120852200D01*
X140938095Y-120852200D02*
X140842857Y-120899819D01*
X140842857Y-120899819D02*
X140604762Y-120899819D01*
X140604762Y-120899819D02*
X140509524Y-120852200D01*
X140509524Y-120852200D02*
X140461905Y-120804580D01*
X151701667Y-115772200D02*
X151844524Y-115819819D01*
X151844524Y-115819819D02*
X152082619Y-115819819D01*
X152082619Y-115819819D02*
X152177857Y-115772200D01*
X152177857Y-115772200D02*
X152225476Y-115724580D01*
X152225476Y-115724580D02*
X152273095Y-115629342D01*
X152273095Y-115629342D02*
X152273095Y-115534104D01*
X152273095Y-115534104D02*
X152225476Y-115438866D01*
X152225476Y-115438866D02*
X152177857Y-115391247D01*
X152177857Y-115391247D02*
X152082619Y-115343628D01*
X152082619Y-115343628D02*
X151892143Y-115296009D01*
X151892143Y-115296009D02*
X151796905Y-115248390D01*
X151796905Y-115248390D02*
X151749286Y-115200771D01*
X151749286Y-115200771D02*
X151701667Y-115105533D01*
X151701667Y-115105533D02*
X151701667Y-115010295D01*
X151701667Y-115010295D02*
X151749286Y-114915057D01*
X151749286Y-114915057D02*
X151796905Y-114867438D01*
X151796905Y-114867438D02*
X151892143Y-114819819D01*
X151892143Y-114819819D02*
X152130238Y-114819819D01*
X152130238Y-114819819D02*
X152273095Y-114867438D01*
X152606429Y-114819819D02*
X152844524Y-115819819D01*
X152844524Y-115819819D02*
X153035000Y-115105533D01*
X153035000Y-115105533D02*
X153225476Y-115819819D01*
X153225476Y-115819819D02*
X153463572Y-114819819D01*
X154368333Y-115819819D02*
X153796905Y-115819819D01*
X154082619Y-115819819D02*
X154082619Y-114819819D01*
X154082619Y-114819819D02*
X153987381Y-114962676D01*
X153987381Y-114962676D02*
X153892143Y-115057914D01*
X153892143Y-115057914D02*
X153796905Y-115105533D01*
X124396667Y-124372200D02*
X124539524Y-124419819D01*
X124539524Y-124419819D02*
X124777619Y-124419819D01*
X124777619Y-124419819D02*
X124872857Y-124372200D01*
X124872857Y-124372200D02*
X124920476Y-124324580D01*
X124920476Y-124324580D02*
X124968095Y-124229342D01*
X124968095Y-124229342D02*
X124968095Y-124134104D01*
X124968095Y-124134104D02*
X124920476Y-124038866D01*
X124920476Y-124038866D02*
X124872857Y-123991247D01*
X124872857Y-123991247D02*
X124777619Y-123943628D01*
X124777619Y-123943628D02*
X124587143Y-123896009D01*
X124587143Y-123896009D02*
X124491905Y-123848390D01*
X124491905Y-123848390D02*
X124444286Y-123800771D01*
X124444286Y-123800771D02*
X124396667Y-123705533D01*
X124396667Y-123705533D02*
X124396667Y-123610295D01*
X124396667Y-123610295D02*
X124444286Y-123515057D01*
X124444286Y-123515057D02*
X124491905Y-123467438D01*
X124491905Y-123467438D02*
X124587143Y-123419819D01*
X124587143Y-123419819D02*
X124825238Y-123419819D01*
X124825238Y-123419819D02*
X124968095Y-123467438D01*
X125301429Y-123419819D02*
X125539524Y-124419819D01*
X125539524Y-124419819D02*
X125730000Y-123705533D01*
X125730000Y-123705533D02*
X125920476Y-124419819D01*
X125920476Y-124419819D02*
X126158572Y-123419819D01*
X126968095Y-123753152D02*
X126968095Y-124419819D01*
X126730000Y-123372200D02*
X126491905Y-124086485D01*
X126491905Y-124086485D02*
X127110952Y-124086485D01*
X124396667Y-115822200D02*
X124539524Y-115869819D01*
X124539524Y-115869819D02*
X124777619Y-115869819D01*
X124777619Y-115869819D02*
X124872857Y-115822200D01*
X124872857Y-115822200D02*
X124920476Y-115774580D01*
X124920476Y-115774580D02*
X124968095Y-115679342D01*
X124968095Y-115679342D02*
X124968095Y-115584104D01*
X124968095Y-115584104D02*
X124920476Y-115488866D01*
X124920476Y-115488866D02*
X124872857Y-115441247D01*
X124872857Y-115441247D02*
X124777619Y-115393628D01*
X124777619Y-115393628D02*
X124587143Y-115346009D01*
X124587143Y-115346009D02*
X124491905Y-115298390D01*
X124491905Y-115298390D02*
X124444286Y-115250771D01*
X124444286Y-115250771D02*
X124396667Y-115155533D01*
X124396667Y-115155533D02*
X124396667Y-115060295D01*
X124396667Y-115060295D02*
X124444286Y-114965057D01*
X124444286Y-114965057D02*
X124491905Y-114917438D01*
X124491905Y-114917438D02*
X124587143Y-114869819D01*
X124587143Y-114869819D02*
X124825238Y-114869819D01*
X124825238Y-114869819D02*
X124968095Y-114917438D01*
X125301429Y-114869819D02*
X125539524Y-115869819D01*
X125539524Y-115869819D02*
X125730000Y-115155533D01*
X125730000Y-115155533D02*
X125920476Y-115869819D01*
X125920476Y-115869819D02*
X126158572Y-114869819D01*
X126444286Y-114869819D02*
X127063333Y-114869819D01*
X127063333Y-114869819D02*
X126730000Y-115250771D01*
X126730000Y-115250771D02*
X126872857Y-115250771D01*
X126872857Y-115250771D02*
X126968095Y-115298390D01*
X126968095Y-115298390D02*
X127015714Y-115346009D01*
X127015714Y-115346009D02*
X127063333Y-115441247D01*
X127063333Y-115441247D02*
X127063333Y-115679342D01*
X127063333Y-115679342D02*
X127015714Y-115774580D01*
X127015714Y-115774580D02*
X126968095Y-115822200D01*
X126968095Y-115822200D02*
X126872857Y-115869819D01*
X126872857Y-115869819D02*
X126587143Y-115869819D01*
X126587143Y-115869819D02*
X126491905Y-115822200D01*
X126491905Y-115822200D02*
X126444286Y-115774580D01*
X149363580Y-119800666D02*
X149411200Y-119848285D01*
X149411200Y-119848285D02*
X149458819Y-119991142D01*
X149458819Y-119991142D02*
X149458819Y-120086380D01*
X149458819Y-120086380D02*
X149411200Y-120229237D01*
X149411200Y-120229237D02*
X149315961Y-120324475D01*
X149315961Y-120324475D02*
X149220723Y-120372094D01*
X149220723Y-120372094D02*
X149030247Y-120419713D01*
X149030247Y-120419713D02*
X148887390Y-120419713D01*
X148887390Y-120419713D02*
X148696914Y-120372094D01*
X148696914Y-120372094D02*
X148601676Y-120324475D01*
X148601676Y-120324475D02*
X148506438Y-120229237D01*
X148506438Y-120229237D02*
X148458819Y-120086380D01*
X148458819Y-120086380D02*
X148458819Y-119991142D01*
X148458819Y-119991142D02*
X148506438Y-119848285D01*
X148506438Y-119848285D02*
X148554057Y-119800666D01*
X148554057Y-119419713D02*
X148506438Y-119372094D01*
X148506438Y-119372094D02*
X148458819Y-119276856D01*
X148458819Y-119276856D02*
X148458819Y-119038761D01*
X148458819Y-119038761D02*
X148506438Y-118943523D01*
X148506438Y-118943523D02*
X148554057Y-118895904D01*
X148554057Y-118895904D02*
X148649295Y-118848285D01*
X148649295Y-118848285D02*
X148744533Y-118848285D01*
X148744533Y-118848285D02*
X148887390Y-118895904D01*
X148887390Y-118895904D02*
X149458819Y-119467332D01*
X149458819Y-119467332D02*
X149458819Y-118848285D01*
D11*
%TO.C,C1*%
X148211000Y-109841420D02*
X148211000Y-110122580D01*
X147191000Y-109841420D02*
X147191000Y-110122580D01*
%TO.C,J4*%
X130870000Y-132147000D02*
X130870000Y-133477000D01*
X129540000Y-132147000D02*
X130870000Y-132147000D01*
X128270000Y-132147000D02*
X120590000Y-132147000D01*
X128270000Y-132147000D02*
X128270000Y-134807000D01*
X120590000Y-132147000D02*
X120590000Y-134807000D01*
X128270000Y-134807000D02*
X120590000Y-134807000D01*
%TO.C,J1*%
X120590000Y-128330000D02*
X120590000Y-127000000D01*
X121920000Y-128330000D02*
X120590000Y-128330000D01*
X123190000Y-128330000D02*
X141030000Y-128330000D01*
X123190000Y-128330000D02*
X123190000Y-125670000D01*
X141030000Y-128330000D02*
X141030000Y-125670000D01*
X123190000Y-125670000D02*
X141030000Y-125670000D01*
%TO.C,J3*%
X155254000Y-135830000D02*
X155254000Y-137160000D01*
X153924000Y-135830000D02*
X155254000Y-135830000D01*
X152654000Y-135830000D02*
X144974000Y-135830000D01*
X152654000Y-135830000D02*
X152654000Y-138490000D01*
X144974000Y-135830000D02*
X144974000Y-138490000D01*
X152654000Y-138490000D02*
X144974000Y-138490000D01*
%TO.C,J2*%
X120590000Y-138490000D02*
X120590000Y-137160000D01*
X121920000Y-138490000D02*
X120590000Y-138490000D01*
X123190000Y-138490000D02*
X141030000Y-138490000D01*
X123190000Y-138490000D02*
X123190000Y-135830000D01*
X141030000Y-138490000D02*
X141030000Y-135830000D01*
X123190000Y-135830000D02*
X141030000Y-135830000D01*
%TO.C,SW2*%
X149825000Y-116465000D02*
X149825000Y-116875000D01*
X149825000Y-118475000D02*
X149825000Y-120875000D01*
X149825000Y-122475000D02*
X149825000Y-122885000D01*
X149825000Y-122885000D02*
X156245000Y-122885000D01*
X156245000Y-116465000D02*
X149825000Y-116465000D01*
X156245000Y-116875000D02*
X156245000Y-116465000D01*
X156245000Y-120875000D02*
X156245000Y-118475000D01*
X156245000Y-122885000D02*
X156245000Y-122605000D01*
%TO.C,C5*%
X134876000Y-116064420D02*
X134876000Y-116345580D01*
X133856000Y-116064420D02*
X133856000Y-116345580D01*
%TO.C,C4*%
X131574000Y-119620420D02*
X131574000Y-119901580D01*
X130554000Y-119620420D02*
X130554000Y-119901580D01*
%TO.C,C3*%
X131574000Y-110984420D02*
X131574000Y-111265580D01*
X130554000Y-110984420D02*
X130554000Y-111265580D01*
%TO.C,SW5*%
X136490000Y-112995000D02*
X136490000Y-113405000D01*
X136490000Y-115005000D02*
X136490000Y-117405000D01*
X136490000Y-119005000D02*
X136490000Y-119415000D01*
X136490000Y-119415000D02*
X142910000Y-119415000D01*
X142910000Y-112995000D02*
X136490000Y-112995000D01*
X142910000Y-113405000D02*
X142910000Y-112995000D01*
X142910000Y-117405000D02*
X142910000Y-115005000D01*
X142910000Y-119415000D02*
X142910000Y-119135000D01*
%TO.C,SW1*%
X149825000Y-107915000D02*
X149825000Y-108325000D01*
X149825000Y-109925000D02*
X149825000Y-112325000D01*
X149825000Y-113925000D02*
X149825000Y-114335000D01*
X149825000Y-114335000D02*
X156245000Y-114335000D01*
X156245000Y-107915000D02*
X149825000Y-107915000D01*
X156245000Y-108325000D02*
X156245000Y-107915000D01*
X156245000Y-112325000D02*
X156245000Y-109925000D01*
X156245000Y-114335000D02*
X156245000Y-114055000D01*
%TO.C,SW4*%
X122520000Y-116515000D02*
X122520000Y-116925000D01*
X122520000Y-118525000D02*
X122520000Y-120925000D01*
X122520000Y-122525000D02*
X122520000Y-122935000D01*
X122520000Y-122935000D02*
X128940000Y-122935000D01*
X128940000Y-116515000D02*
X122520000Y-116515000D01*
X128940000Y-116925000D02*
X128940000Y-116515000D01*
X128940000Y-120925000D02*
X128940000Y-118525000D01*
X128940000Y-122935000D02*
X128940000Y-122655000D01*
%TO.C,SW3*%
X122520000Y-107965000D02*
X122520000Y-108375000D01*
X122520000Y-109975000D02*
X122520000Y-112375000D01*
X122520000Y-113975000D02*
X122520000Y-114385000D01*
X122520000Y-114385000D02*
X128940000Y-114385000D01*
X128940000Y-107965000D02*
X122520000Y-107965000D01*
X128940000Y-108375000D02*
X128940000Y-107965000D01*
X128940000Y-112375000D02*
X128940000Y-109975000D01*
X128940000Y-114385000D02*
X128940000Y-114105000D01*
%TO.C,C2*%
X148084000Y-119493420D02*
X148084000Y-119774580D01*
X147064000Y-119493420D02*
X147064000Y-119774580D01*
%TD*%
M02*
