M48
; DRILL file {KiCad 7.0.9} date Sun Jan  7 17:51:31 2024
; FORMAT={-:-/ absolute / inch / decimal}
; #@! TF.CreationDate,2024-01-07T17:51:31+01:00
; #@! TF.GenerationSoftware,Kicad,Pcbnew,7.0.9
; #@! TF.FileFunction,Plated,1,2,PTH
FMAT,2
INCH
; #@! TA.AperFunction,Plated,PTH,ViaDrill
T1C0.0118
; #@! TA.AperFunction,Plated,PTH,ViaDrill
T2C0.0157
; #@! TA.AperFunction,Plated,PTH,ComponentDrill
T3C0.0394
%
G90
G05
T1
X4.755Y-5.08
X4.79Y-4.36
X4.795Y-4.115
X4.8Y-4.705
X4.845Y-4.93
X4.93Y-4.795
X4.94Y-4.585
X4.945Y-4.375
X4.945Y-5.2
X4.95Y-4.935
X5.03Y-4.155
X5.05Y-4.705
X5.055Y-4.925
X5.065Y-4.575
X5.13Y-5.34
X5.15Y-4.925
X5.155Y-4.58
X5.16Y-4.8
X5.17Y-5.17
X5.225Y-5.085
X5.23Y-5.245
X5.245Y-4.795
X5.255Y-4.275
X5.255Y-4.93
X5.285Y-5.335
X5.29Y-4.655
X5.3Y-4.46
X5.345Y-5.08
X5.37Y-5.255
X5.375Y-4.78
X5.385Y-4.145
X5.41Y-4.925
X5.415Y-4.345
X5.495Y-4.575
X5.5Y-4.455
X5.505Y-4.78
X5.535Y-4.93
X5.56Y-5.13
X5.56Y-5.205
X5.58Y-4.285
X5.585Y-4.715
X5.605Y-5.205
X5.61Y-5.13
X5.62Y-5.06
X5.63Y-5.4
X5.7Y-4.6
X5.705Y-4.46
X5.705Y-4.97
X5.71Y-5.045
X5.745Y-4.115
X5.745Y-4.81
X5.75Y-4.72
X5.77Y-4.98
X5.77Y-5.285
X5.78Y-4.245
X5.815Y-4.805
X5.825Y-4.545
X5.9Y-4.95
X5.905Y-5.04
X5.935Y-4.21
X5.97Y-4.725
X5.99Y-4.365
X6.005Y-4.58
X6.03Y-4.76
X6.045Y-4.37
X6.055Y-5.32
X6.08Y-4.52
X6.18Y-5.4
X6.195Y-5.07
X6.2Y-4.94
X6.21Y-4.545
T2
X4.8Y-4.885
X4.9Y-4.905
X4.935Y-4.525
X5.095Y-4.36
X5.11Y-4.705
X5.24Y-4.56
X5.415Y-5.3
X5.57Y-5.065
X5.72Y-5.3
X5.74Y-4.765
X5.74Y-4.895
X5.75Y-4.325
X5.755Y-4.64
X6.225Y-4.345
T3
X4.8Y-5.0
X4.8Y-5.255
X4.8Y-5.4
X4.9Y-5.0
X4.9Y-5.255
X4.9Y-5.4
X5.0Y-5.0
X5.0Y-5.255
X5.0Y-5.4
X5.1Y-5.0
X5.1Y-5.255
X5.1Y-5.4
X5.2Y-5.0
X5.2Y-5.4
X5.3Y-5.0
X5.3Y-5.4
X5.4Y-5.0
X5.4Y-5.4
X5.5Y-5.0
X5.5Y-5.4
X5.76Y-5.4
X5.86Y-5.4
X5.96Y-5.4
X6.06Y-5.4
T0
M30
