%TF.GenerationSoftware,KiCad,Pcbnew,7.0.9*%
%TF.CreationDate,2024-01-07T17:51:15+01:00*%
%TF.ProjectId,K24LM1MA_veml7700_lightmeter,4b32344c-4d31-44d4-915f-76656d6c3737,rev?*%
%TF.SameCoordinates,Original*%
%TF.FileFunction,Legend,Bot*%
%TF.FilePolarity,Positive*%
%FSLAX46Y46*%
G04 Gerber Fmt 4.6, Leading zero omitted, Abs format (unit mm)*
G04 Created by KiCad (PCBNEW 7.0.9) date 2024-01-07 17:51:15*
%MOMM*%
%LPD*%
G01*
G04 APERTURE LIST*
%ADD10C,0.150000*%
%ADD11C,0.120000*%
%ADD12C,0.127000*%
%ADD13C,0.200000*%
G04 APERTURE END LIST*
D10*
X148883666Y-130883819D02*
X149216999Y-130407628D01*
X149455094Y-130883819D02*
X149455094Y-129883819D01*
X149455094Y-129883819D02*
X149074142Y-129883819D01*
X149074142Y-129883819D02*
X148978904Y-129931438D01*
X148978904Y-129931438D02*
X148931285Y-129979057D01*
X148931285Y-129979057D02*
X148883666Y-130074295D01*
X148883666Y-130074295D02*
X148883666Y-130217152D01*
X148883666Y-130217152D02*
X148931285Y-130312390D01*
X148931285Y-130312390D02*
X148978904Y-130360009D01*
X148978904Y-130360009D02*
X149074142Y-130407628D01*
X149074142Y-130407628D02*
X149455094Y-130407628D01*
X148026523Y-129883819D02*
X148216999Y-129883819D01*
X148216999Y-129883819D02*
X148312237Y-129931438D01*
X148312237Y-129931438D02*
X148359856Y-129979057D01*
X148359856Y-129979057D02*
X148455094Y-130121914D01*
X148455094Y-130121914D02*
X148502713Y-130312390D01*
X148502713Y-130312390D02*
X148502713Y-130693342D01*
X148502713Y-130693342D02*
X148455094Y-130788580D01*
X148455094Y-130788580D02*
X148407475Y-130836200D01*
X148407475Y-130836200D02*
X148312237Y-130883819D01*
X148312237Y-130883819D02*
X148121761Y-130883819D01*
X148121761Y-130883819D02*
X148026523Y-130836200D01*
X148026523Y-130836200D02*
X147978904Y-130788580D01*
X147978904Y-130788580D02*
X147931285Y-130693342D01*
X147931285Y-130693342D02*
X147931285Y-130455247D01*
X147931285Y-130455247D02*
X147978904Y-130360009D01*
X147978904Y-130360009D02*
X148026523Y-130312390D01*
X148026523Y-130312390D02*
X148121761Y-130264771D01*
X148121761Y-130264771D02*
X148312237Y-130264771D01*
X148312237Y-130264771D02*
X148407475Y-130312390D01*
X148407475Y-130312390D02*
X148455094Y-130360009D01*
X148455094Y-130360009D02*
X148502713Y-130455247D01*
X141202580Y-122928142D02*
X141250200Y-122880523D01*
X141250200Y-122880523D02*
X141297819Y-122737666D01*
X141297819Y-122737666D02*
X141297819Y-122642428D01*
X141297819Y-122642428D02*
X141250200Y-122499571D01*
X141250200Y-122499571D02*
X141154961Y-122404333D01*
X141154961Y-122404333D02*
X141059723Y-122356714D01*
X141059723Y-122356714D02*
X140869247Y-122309095D01*
X140869247Y-122309095D02*
X140726390Y-122309095D01*
X140726390Y-122309095D02*
X140535914Y-122356714D01*
X140535914Y-122356714D02*
X140440676Y-122404333D01*
X140440676Y-122404333D02*
X140345438Y-122499571D01*
X140345438Y-122499571D02*
X140297819Y-122642428D01*
X140297819Y-122642428D02*
X140297819Y-122737666D01*
X140297819Y-122737666D02*
X140345438Y-122880523D01*
X140345438Y-122880523D02*
X140393057Y-122928142D01*
X141297819Y-123880523D02*
X141297819Y-123309095D01*
X141297819Y-123594809D02*
X140297819Y-123594809D01*
X140297819Y-123594809D02*
X140440676Y-123499571D01*
X140440676Y-123499571D02*
X140535914Y-123404333D01*
X140535914Y-123404333D02*
X140583533Y-123309095D01*
X140393057Y-124261476D02*
X140345438Y-124309095D01*
X140345438Y-124309095D02*
X140297819Y-124404333D01*
X140297819Y-124404333D02*
X140297819Y-124642428D01*
X140297819Y-124642428D02*
X140345438Y-124737666D01*
X140345438Y-124737666D02*
X140393057Y-124785285D01*
X140393057Y-124785285D02*
X140488295Y-124832904D01*
X140488295Y-124832904D02*
X140583533Y-124832904D01*
X140583533Y-124832904D02*
X140726390Y-124785285D01*
X140726390Y-124785285D02*
X141297819Y-124213857D01*
X141297819Y-124213857D02*
X141297819Y-124832904D01*
X139064904Y-127724819D02*
X139064904Y-128534342D01*
X139064904Y-128534342D02*
X139017285Y-128629580D01*
X139017285Y-128629580D02*
X138969666Y-128677200D01*
X138969666Y-128677200D02*
X138874428Y-128724819D01*
X138874428Y-128724819D02*
X138683952Y-128724819D01*
X138683952Y-128724819D02*
X138588714Y-128677200D01*
X138588714Y-128677200D02*
X138541095Y-128629580D01*
X138541095Y-128629580D02*
X138493476Y-128534342D01*
X138493476Y-128534342D02*
X138493476Y-127724819D01*
X137493476Y-128724819D02*
X138064904Y-128724819D01*
X137779190Y-128724819D02*
X137779190Y-127724819D01*
X137779190Y-127724819D02*
X137874428Y-127867676D01*
X137874428Y-127867676D02*
X137969666Y-127962914D01*
X137969666Y-127962914D02*
X138064904Y-128010533D01*
X121244819Y-130452905D02*
X120244819Y-130452905D01*
X120244819Y-130452905D02*
X120244819Y-130691000D01*
X120244819Y-130691000D02*
X120292438Y-130833857D01*
X120292438Y-130833857D02*
X120387676Y-130929095D01*
X120387676Y-130929095D02*
X120482914Y-130976714D01*
X120482914Y-130976714D02*
X120673390Y-131024333D01*
X120673390Y-131024333D02*
X120816247Y-131024333D01*
X120816247Y-131024333D02*
X121006723Y-130976714D01*
X121006723Y-130976714D02*
X121101961Y-130929095D01*
X121101961Y-130929095D02*
X121197200Y-130833857D01*
X121197200Y-130833857D02*
X121244819Y-130691000D01*
X121244819Y-130691000D02*
X121244819Y-130452905D01*
X121244819Y-131976714D02*
X121244819Y-131405286D01*
X121244819Y-131691000D02*
X120244819Y-131691000D01*
X120244819Y-131691000D02*
X120387676Y-131595762D01*
X120387676Y-131595762D02*
X120482914Y-131500524D01*
X120482914Y-131500524D02*
X120530533Y-131405286D01*
X136753666Y-133931819D02*
X137086999Y-133455628D01*
X137325094Y-133931819D02*
X137325094Y-132931819D01*
X137325094Y-132931819D02*
X136944142Y-132931819D01*
X136944142Y-132931819D02*
X136848904Y-132979438D01*
X136848904Y-132979438D02*
X136801285Y-133027057D01*
X136801285Y-133027057D02*
X136753666Y-133122295D01*
X136753666Y-133122295D02*
X136753666Y-133265152D01*
X136753666Y-133265152D02*
X136801285Y-133360390D01*
X136801285Y-133360390D02*
X136848904Y-133408009D01*
X136848904Y-133408009D02*
X136944142Y-133455628D01*
X136944142Y-133455628D02*
X137325094Y-133455628D01*
X135848904Y-132931819D02*
X136325094Y-132931819D01*
X136325094Y-132931819D02*
X136372713Y-133408009D01*
X136372713Y-133408009D02*
X136325094Y-133360390D01*
X136325094Y-133360390D02*
X136229856Y-133312771D01*
X136229856Y-133312771D02*
X135991761Y-133312771D01*
X135991761Y-133312771D02*
X135896523Y-133360390D01*
X135896523Y-133360390D02*
X135848904Y-133408009D01*
X135848904Y-133408009D02*
X135801285Y-133503247D01*
X135801285Y-133503247D02*
X135801285Y-133741342D01*
X135801285Y-133741342D02*
X135848904Y-133836580D01*
X135848904Y-133836580D02*
X135896523Y-133884200D01*
X135896523Y-133884200D02*
X135991761Y-133931819D01*
X135991761Y-133931819D02*
X136229856Y-133931819D01*
X136229856Y-133931819D02*
X136325094Y-133884200D01*
X136325094Y-133884200D02*
X136372713Y-133836580D01*
X131833857Y-139170580D02*
X131881476Y-139218200D01*
X131881476Y-139218200D02*
X132024333Y-139265819D01*
X132024333Y-139265819D02*
X132119571Y-139265819D01*
X132119571Y-139265819D02*
X132262428Y-139218200D01*
X132262428Y-139218200D02*
X132357666Y-139122961D01*
X132357666Y-139122961D02*
X132405285Y-139027723D01*
X132405285Y-139027723D02*
X132452904Y-138837247D01*
X132452904Y-138837247D02*
X132452904Y-138694390D01*
X132452904Y-138694390D02*
X132405285Y-138503914D01*
X132405285Y-138503914D02*
X132357666Y-138408676D01*
X132357666Y-138408676D02*
X132262428Y-138313438D01*
X132262428Y-138313438D02*
X132119571Y-138265819D01*
X132119571Y-138265819D02*
X132024333Y-138265819D01*
X132024333Y-138265819D02*
X131881476Y-138313438D01*
X131881476Y-138313438D02*
X131833857Y-138361057D01*
X130881476Y-139265819D02*
X131452904Y-139265819D01*
X131167190Y-139265819D02*
X131167190Y-138265819D01*
X131167190Y-138265819D02*
X131262428Y-138408676D01*
X131262428Y-138408676D02*
X131357666Y-138503914D01*
X131357666Y-138503914D02*
X131452904Y-138551533D01*
X130024333Y-138599152D02*
X130024333Y-139265819D01*
X130262428Y-138218200D02*
X130500523Y-138932485D01*
X130500523Y-138932485D02*
X129881476Y-138932485D01*
X148663819Y-104100333D02*
X148187628Y-103767000D01*
X148663819Y-103528905D02*
X147663819Y-103528905D01*
X147663819Y-103528905D02*
X147663819Y-103909857D01*
X147663819Y-103909857D02*
X147711438Y-104005095D01*
X147711438Y-104005095D02*
X147759057Y-104052714D01*
X147759057Y-104052714D02*
X147854295Y-104100333D01*
X147854295Y-104100333D02*
X147997152Y-104100333D01*
X147997152Y-104100333D02*
X148092390Y-104052714D01*
X148092390Y-104052714D02*
X148140009Y-104005095D01*
X148140009Y-104005095D02*
X148187628Y-103909857D01*
X148187628Y-103909857D02*
X148187628Y-103528905D01*
X147759057Y-104481286D02*
X147711438Y-104528905D01*
X147711438Y-104528905D02*
X147663819Y-104624143D01*
X147663819Y-104624143D02*
X147663819Y-104862238D01*
X147663819Y-104862238D02*
X147711438Y-104957476D01*
X147711438Y-104957476D02*
X147759057Y-105005095D01*
X147759057Y-105005095D02*
X147854295Y-105052714D01*
X147854295Y-105052714D02*
X147949533Y-105052714D01*
X147949533Y-105052714D02*
X148092390Y-105005095D01*
X148092390Y-105005095D02*
X148663819Y-104433667D01*
X148663819Y-104433667D02*
X148663819Y-105052714D01*
X125991857Y-135741580D02*
X126039476Y-135789200D01*
X126039476Y-135789200D02*
X126182333Y-135836819D01*
X126182333Y-135836819D02*
X126277571Y-135836819D01*
X126277571Y-135836819D02*
X126420428Y-135789200D01*
X126420428Y-135789200D02*
X126515666Y-135693961D01*
X126515666Y-135693961D02*
X126563285Y-135598723D01*
X126563285Y-135598723D02*
X126610904Y-135408247D01*
X126610904Y-135408247D02*
X126610904Y-135265390D01*
X126610904Y-135265390D02*
X126563285Y-135074914D01*
X126563285Y-135074914D02*
X126515666Y-134979676D01*
X126515666Y-134979676D02*
X126420428Y-134884438D01*
X126420428Y-134884438D02*
X126277571Y-134836819D01*
X126277571Y-134836819D02*
X126182333Y-134836819D01*
X126182333Y-134836819D02*
X126039476Y-134884438D01*
X126039476Y-134884438D02*
X125991857Y-134932057D01*
X125039476Y-135836819D02*
X125610904Y-135836819D01*
X125325190Y-135836819D02*
X125325190Y-134836819D01*
X125325190Y-134836819D02*
X125420428Y-134979676D01*
X125420428Y-134979676D02*
X125515666Y-135074914D01*
X125515666Y-135074914D02*
X125610904Y-135122533D01*
X124706142Y-134836819D02*
X124087095Y-134836819D01*
X124087095Y-134836819D02*
X124420428Y-135217771D01*
X124420428Y-135217771D02*
X124277571Y-135217771D01*
X124277571Y-135217771D02*
X124182333Y-135265390D01*
X124182333Y-135265390D02*
X124134714Y-135313009D01*
X124134714Y-135313009D02*
X124087095Y-135408247D01*
X124087095Y-135408247D02*
X124087095Y-135646342D01*
X124087095Y-135646342D02*
X124134714Y-135741580D01*
X124134714Y-135741580D02*
X124182333Y-135789200D01*
X124182333Y-135789200D02*
X124277571Y-135836819D01*
X124277571Y-135836819D02*
X124563285Y-135836819D01*
X124563285Y-135836819D02*
X124658523Y-135789200D01*
X124658523Y-135789200D02*
X124706142Y-135741580D01*
X157360857Y-138027580D02*
X157408476Y-138075200D01*
X157408476Y-138075200D02*
X157551333Y-138122819D01*
X157551333Y-138122819D02*
X157646571Y-138122819D01*
X157646571Y-138122819D02*
X157789428Y-138075200D01*
X157789428Y-138075200D02*
X157884666Y-137979961D01*
X157884666Y-137979961D02*
X157932285Y-137884723D01*
X157932285Y-137884723D02*
X157979904Y-137694247D01*
X157979904Y-137694247D02*
X157979904Y-137551390D01*
X157979904Y-137551390D02*
X157932285Y-137360914D01*
X157932285Y-137360914D02*
X157884666Y-137265676D01*
X157884666Y-137265676D02*
X157789428Y-137170438D01*
X157789428Y-137170438D02*
X157646571Y-137122819D01*
X157646571Y-137122819D02*
X157551333Y-137122819D01*
X157551333Y-137122819D02*
X157408476Y-137170438D01*
X157408476Y-137170438D02*
X157360857Y-137218057D01*
X156408476Y-138122819D02*
X156979904Y-138122819D01*
X156694190Y-138122819D02*
X156694190Y-137122819D01*
X156694190Y-137122819D02*
X156789428Y-137265676D01*
X156789428Y-137265676D02*
X156884666Y-137360914D01*
X156884666Y-137360914D02*
X156979904Y-137408533D01*
X155789428Y-137122819D02*
X155694190Y-137122819D01*
X155694190Y-137122819D02*
X155598952Y-137170438D01*
X155598952Y-137170438D02*
X155551333Y-137218057D01*
X155551333Y-137218057D02*
X155503714Y-137313295D01*
X155503714Y-137313295D02*
X155456095Y-137503771D01*
X155456095Y-137503771D02*
X155456095Y-137741866D01*
X155456095Y-137741866D02*
X155503714Y-137932342D01*
X155503714Y-137932342D02*
X155551333Y-138027580D01*
X155551333Y-138027580D02*
X155598952Y-138075200D01*
X155598952Y-138075200D02*
X155694190Y-138122819D01*
X155694190Y-138122819D02*
X155789428Y-138122819D01*
X155789428Y-138122819D02*
X155884666Y-138075200D01*
X155884666Y-138075200D02*
X155932285Y-138027580D01*
X155932285Y-138027580D02*
X155979904Y-137932342D01*
X155979904Y-137932342D02*
X156027523Y-137741866D01*
X156027523Y-137741866D02*
X156027523Y-137503771D01*
X156027523Y-137503771D02*
X155979904Y-137313295D01*
X155979904Y-137313295D02*
X155932285Y-137218057D01*
X155932285Y-137218057D02*
X155884666Y-137170438D01*
X155884666Y-137170438D02*
X155789428Y-137122819D01*
X154601057Y-111791761D02*
X154553438Y-111696523D01*
X154553438Y-111696523D02*
X154458200Y-111601285D01*
X154458200Y-111601285D02*
X154315342Y-111458428D01*
X154315342Y-111458428D02*
X154267723Y-111363190D01*
X154267723Y-111363190D02*
X154267723Y-111267952D01*
X154505819Y-111315571D02*
X154458200Y-111220333D01*
X154458200Y-111220333D02*
X154362961Y-111125095D01*
X154362961Y-111125095D02*
X154172485Y-111077476D01*
X154172485Y-111077476D02*
X153839152Y-111077476D01*
X153839152Y-111077476D02*
X153648676Y-111125095D01*
X153648676Y-111125095D02*
X153553438Y-111220333D01*
X153553438Y-111220333D02*
X153505819Y-111315571D01*
X153505819Y-111315571D02*
X153505819Y-111506047D01*
X153505819Y-111506047D02*
X153553438Y-111601285D01*
X153553438Y-111601285D02*
X153648676Y-111696523D01*
X153648676Y-111696523D02*
X153839152Y-111744142D01*
X153839152Y-111744142D02*
X154172485Y-111744142D01*
X154172485Y-111744142D02*
X154362961Y-111696523D01*
X154362961Y-111696523D02*
X154458200Y-111601285D01*
X154458200Y-111601285D02*
X154505819Y-111506047D01*
X154505819Y-111506047D02*
X154505819Y-111315571D01*
X154505819Y-112696523D02*
X154505819Y-112125095D01*
X154505819Y-112410809D02*
X153505819Y-112410809D01*
X153505819Y-112410809D02*
X153648676Y-112315571D01*
X153648676Y-112315571D02*
X153743914Y-112220333D01*
X153743914Y-112220333D02*
X153791533Y-112125095D01*
X137707666Y-135106580D02*
X137755285Y-135154200D01*
X137755285Y-135154200D02*
X137898142Y-135201819D01*
X137898142Y-135201819D02*
X137993380Y-135201819D01*
X137993380Y-135201819D02*
X138136237Y-135154200D01*
X138136237Y-135154200D02*
X138231475Y-135058961D01*
X138231475Y-135058961D02*
X138279094Y-134963723D01*
X138279094Y-134963723D02*
X138326713Y-134773247D01*
X138326713Y-134773247D02*
X138326713Y-134630390D01*
X138326713Y-134630390D02*
X138279094Y-134439914D01*
X138279094Y-134439914D02*
X138231475Y-134344676D01*
X138231475Y-134344676D02*
X138136237Y-134249438D01*
X138136237Y-134249438D02*
X137993380Y-134201819D01*
X137993380Y-134201819D02*
X137898142Y-134201819D01*
X137898142Y-134201819D02*
X137755285Y-134249438D01*
X137755285Y-134249438D02*
X137707666Y-134297057D01*
X136850523Y-134201819D02*
X137040999Y-134201819D01*
X137040999Y-134201819D02*
X137136237Y-134249438D01*
X137136237Y-134249438D02*
X137183856Y-134297057D01*
X137183856Y-134297057D02*
X137279094Y-134439914D01*
X137279094Y-134439914D02*
X137326713Y-134630390D01*
X137326713Y-134630390D02*
X137326713Y-135011342D01*
X137326713Y-135011342D02*
X137279094Y-135106580D01*
X137279094Y-135106580D02*
X137231475Y-135154200D01*
X137231475Y-135154200D02*
X137136237Y-135201819D01*
X137136237Y-135201819D02*
X136945761Y-135201819D01*
X136945761Y-135201819D02*
X136850523Y-135154200D01*
X136850523Y-135154200D02*
X136802904Y-135106580D01*
X136802904Y-135106580D02*
X136755285Y-135011342D01*
X136755285Y-135011342D02*
X136755285Y-134773247D01*
X136755285Y-134773247D02*
X136802904Y-134678009D01*
X136802904Y-134678009D02*
X136850523Y-134630390D01*
X136850523Y-134630390D02*
X136945761Y-134582771D01*
X136945761Y-134582771D02*
X137136237Y-134582771D01*
X137136237Y-134582771D02*
X137231475Y-134630390D01*
X137231475Y-134630390D02*
X137279094Y-134678009D01*
X137279094Y-134678009D02*
X137326713Y-134773247D01*
X139072857Y-125803819D02*
X139406190Y-125327628D01*
X139644285Y-125803819D02*
X139644285Y-124803819D01*
X139644285Y-124803819D02*
X139263333Y-124803819D01*
X139263333Y-124803819D02*
X139168095Y-124851438D01*
X139168095Y-124851438D02*
X139120476Y-124899057D01*
X139120476Y-124899057D02*
X139072857Y-124994295D01*
X139072857Y-124994295D02*
X139072857Y-125137152D01*
X139072857Y-125137152D02*
X139120476Y-125232390D01*
X139120476Y-125232390D02*
X139168095Y-125280009D01*
X139168095Y-125280009D02*
X139263333Y-125327628D01*
X139263333Y-125327628D02*
X139644285Y-125327628D01*
X138120476Y-125803819D02*
X138691904Y-125803819D01*
X138406190Y-125803819D02*
X138406190Y-124803819D01*
X138406190Y-124803819D02*
X138501428Y-124946676D01*
X138501428Y-124946676D02*
X138596666Y-125041914D01*
X138596666Y-125041914D02*
X138691904Y-125089533D01*
X137501428Y-124803819D02*
X137406190Y-124803819D01*
X137406190Y-124803819D02*
X137310952Y-124851438D01*
X137310952Y-124851438D02*
X137263333Y-124899057D01*
X137263333Y-124899057D02*
X137215714Y-124994295D01*
X137215714Y-124994295D02*
X137168095Y-125184771D01*
X137168095Y-125184771D02*
X137168095Y-125422866D01*
X137168095Y-125422866D02*
X137215714Y-125613342D01*
X137215714Y-125613342D02*
X137263333Y-125708580D01*
X137263333Y-125708580D02*
X137310952Y-125756200D01*
X137310952Y-125756200D02*
X137406190Y-125803819D01*
X137406190Y-125803819D02*
X137501428Y-125803819D01*
X137501428Y-125803819D02*
X137596666Y-125756200D01*
X137596666Y-125756200D02*
X137644285Y-125708580D01*
X137644285Y-125708580D02*
X137691904Y-125613342D01*
X137691904Y-125613342D02*
X137739523Y-125422866D01*
X137739523Y-125422866D02*
X137739523Y-125184771D01*
X137739523Y-125184771D02*
X137691904Y-124994295D01*
X137691904Y-124994295D02*
X137644285Y-124899057D01*
X137644285Y-124899057D02*
X137596666Y-124851438D01*
X137596666Y-124851438D02*
X137501428Y-124803819D01*
X147192904Y-103086819D02*
X147192904Y-103896342D01*
X147192904Y-103896342D02*
X147145285Y-103991580D01*
X147145285Y-103991580D02*
X147097666Y-104039200D01*
X147097666Y-104039200D02*
X147002428Y-104086819D01*
X147002428Y-104086819D02*
X146811952Y-104086819D01*
X146811952Y-104086819D02*
X146716714Y-104039200D01*
X146716714Y-104039200D02*
X146669095Y-103991580D01*
X146669095Y-103991580D02*
X146621476Y-103896342D01*
X146621476Y-103896342D02*
X146621476Y-103086819D01*
X146192904Y-103182057D02*
X146145285Y-103134438D01*
X146145285Y-103134438D02*
X146050047Y-103086819D01*
X146050047Y-103086819D02*
X145811952Y-103086819D01*
X145811952Y-103086819D02*
X145716714Y-103134438D01*
X145716714Y-103134438D02*
X145669095Y-103182057D01*
X145669095Y-103182057D02*
X145621476Y-103277295D01*
X145621476Y-103277295D02*
X145621476Y-103372533D01*
X145621476Y-103372533D02*
X145669095Y-103515390D01*
X145669095Y-103515390D02*
X146240523Y-104086819D01*
X146240523Y-104086819D02*
X145621476Y-104086819D01*
X153077057Y-110775761D02*
X153029438Y-110680523D01*
X153029438Y-110680523D02*
X152934200Y-110585285D01*
X152934200Y-110585285D02*
X152791342Y-110442428D01*
X152791342Y-110442428D02*
X152743723Y-110347190D01*
X152743723Y-110347190D02*
X152743723Y-110251952D01*
X152981819Y-110299571D02*
X152934200Y-110204333D01*
X152934200Y-110204333D02*
X152838961Y-110109095D01*
X152838961Y-110109095D02*
X152648485Y-110061476D01*
X152648485Y-110061476D02*
X152315152Y-110061476D01*
X152315152Y-110061476D02*
X152124676Y-110109095D01*
X152124676Y-110109095D02*
X152029438Y-110204333D01*
X152029438Y-110204333D02*
X151981819Y-110299571D01*
X151981819Y-110299571D02*
X151981819Y-110490047D01*
X151981819Y-110490047D02*
X152029438Y-110585285D01*
X152029438Y-110585285D02*
X152124676Y-110680523D01*
X152124676Y-110680523D02*
X152315152Y-110728142D01*
X152315152Y-110728142D02*
X152648485Y-110728142D01*
X152648485Y-110728142D02*
X152838961Y-110680523D01*
X152838961Y-110680523D02*
X152934200Y-110585285D01*
X152934200Y-110585285D02*
X152981819Y-110490047D01*
X152981819Y-110490047D02*
X152981819Y-110299571D01*
X152077057Y-111109095D02*
X152029438Y-111156714D01*
X152029438Y-111156714D02*
X151981819Y-111251952D01*
X151981819Y-111251952D02*
X151981819Y-111490047D01*
X151981819Y-111490047D02*
X152029438Y-111585285D01*
X152029438Y-111585285D02*
X152077057Y-111632904D01*
X152077057Y-111632904D02*
X152172295Y-111680523D01*
X152172295Y-111680523D02*
X152267533Y-111680523D01*
X152267533Y-111680523D02*
X152410390Y-111632904D01*
X152410390Y-111632904D02*
X152981819Y-111061476D01*
X152981819Y-111061476D02*
X152981819Y-111680523D01*
X134215094Y-134058819D02*
X134215094Y-133058819D01*
X134215094Y-133058819D02*
X133976999Y-133058819D01*
X133976999Y-133058819D02*
X133834142Y-133106438D01*
X133834142Y-133106438D02*
X133738904Y-133201676D01*
X133738904Y-133201676D02*
X133691285Y-133296914D01*
X133691285Y-133296914D02*
X133643666Y-133487390D01*
X133643666Y-133487390D02*
X133643666Y-133630247D01*
X133643666Y-133630247D02*
X133691285Y-133820723D01*
X133691285Y-133820723D02*
X133738904Y-133915961D01*
X133738904Y-133915961D02*
X133834142Y-134011200D01*
X133834142Y-134011200D02*
X133976999Y-134058819D01*
X133976999Y-134058819D02*
X134215094Y-134058819D01*
X132786523Y-133392152D02*
X132786523Y-134058819D01*
X133024618Y-133011200D02*
X133262713Y-133725485D01*
X133262713Y-133725485D02*
X132643666Y-133725485D01*
X153505819Y-135048666D02*
X154220104Y-135048666D01*
X154220104Y-135048666D02*
X154362961Y-135001047D01*
X154362961Y-135001047D02*
X154458200Y-134905809D01*
X154458200Y-134905809D02*
X154505819Y-134762952D01*
X154505819Y-134762952D02*
X154505819Y-134667714D01*
X153505819Y-136001047D02*
X153505819Y-135524857D01*
X153505819Y-135524857D02*
X153982009Y-135477238D01*
X153982009Y-135477238D02*
X153934390Y-135524857D01*
X153934390Y-135524857D02*
X153886771Y-135620095D01*
X153886771Y-135620095D02*
X153886771Y-135858190D01*
X153886771Y-135858190D02*
X153934390Y-135953428D01*
X153934390Y-135953428D02*
X153982009Y-136001047D01*
X153982009Y-136001047D02*
X154077247Y-136048666D01*
X154077247Y-136048666D02*
X154315342Y-136048666D01*
X154315342Y-136048666D02*
X154410580Y-136001047D01*
X154410580Y-136001047D02*
X154458200Y-135953428D01*
X154458200Y-135953428D02*
X154505819Y-135858190D01*
X154505819Y-135858190D02*
X154505819Y-135620095D01*
X154505819Y-135620095D02*
X154458200Y-135524857D01*
X154458200Y-135524857D02*
X154410580Y-135477238D01*
X136437666Y-129486819D02*
X136770999Y-129010628D01*
X137009094Y-129486819D02*
X137009094Y-128486819D01*
X137009094Y-128486819D02*
X136628142Y-128486819D01*
X136628142Y-128486819D02*
X136532904Y-128534438D01*
X136532904Y-128534438D02*
X136485285Y-128582057D01*
X136485285Y-128582057D02*
X136437666Y-128677295D01*
X136437666Y-128677295D02*
X136437666Y-128820152D01*
X136437666Y-128820152D02*
X136485285Y-128915390D01*
X136485285Y-128915390D02*
X136532904Y-128963009D01*
X136532904Y-128963009D02*
X136628142Y-129010628D01*
X136628142Y-129010628D02*
X137009094Y-129010628D01*
X135580523Y-128820152D02*
X135580523Y-129486819D01*
X135818618Y-128439200D02*
X136056713Y-129153485D01*
X136056713Y-129153485D02*
X135437666Y-129153485D01*
X148843904Y-121501819D02*
X148843904Y-122311342D01*
X148843904Y-122311342D02*
X148796285Y-122406580D01*
X148796285Y-122406580D02*
X148748666Y-122454200D01*
X148748666Y-122454200D02*
X148653428Y-122501819D01*
X148653428Y-122501819D02*
X148462952Y-122501819D01*
X148462952Y-122501819D02*
X148367714Y-122454200D01*
X148367714Y-122454200D02*
X148320095Y-122406580D01*
X148320095Y-122406580D02*
X148272476Y-122311342D01*
X148272476Y-122311342D02*
X148272476Y-121501819D01*
X147891523Y-121501819D02*
X147272476Y-121501819D01*
X147272476Y-121501819D02*
X147605809Y-121882771D01*
X147605809Y-121882771D02*
X147462952Y-121882771D01*
X147462952Y-121882771D02*
X147367714Y-121930390D01*
X147367714Y-121930390D02*
X147320095Y-121978009D01*
X147320095Y-121978009D02*
X147272476Y-122073247D01*
X147272476Y-122073247D02*
X147272476Y-122311342D01*
X147272476Y-122311342D02*
X147320095Y-122406580D01*
X147320095Y-122406580D02*
X147367714Y-122454200D01*
X147367714Y-122454200D02*
X147462952Y-122501819D01*
X147462952Y-122501819D02*
X147748666Y-122501819D01*
X147748666Y-122501819D02*
X147843904Y-122454200D01*
X147843904Y-122454200D02*
X147891523Y-122406580D01*
X153521580Y-120610333D02*
X153569200Y-120562714D01*
X153569200Y-120562714D02*
X153616819Y-120419857D01*
X153616819Y-120419857D02*
X153616819Y-120324619D01*
X153616819Y-120324619D02*
X153569200Y-120181762D01*
X153569200Y-120181762D02*
X153473961Y-120086524D01*
X153473961Y-120086524D02*
X153378723Y-120038905D01*
X153378723Y-120038905D02*
X153188247Y-119991286D01*
X153188247Y-119991286D02*
X153045390Y-119991286D01*
X153045390Y-119991286D02*
X152854914Y-120038905D01*
X152854914Y-120038905D02*
X152759676Y-120086524D01*
X152759676Y-120086524D02*
X152664438Y-120181762D01*
X152664438Y-120181762D02*
X152616819Y-120324619D01*
X152616819Y-120324619D02*
X152616819Y-120419857D01*
X152616819Y-120419857D02*
X152664438Y-120562714D01*
X152664438Y-120562714D02*
X152712057Y-120610333D01*
X152616819Y-120943667D02*
X152616819Y-121610333D01*
X152616819Y-121610333D02*
X153616819Y-121181762D01*
X144565666Y-104975819D02*
X144898999Y-104499628D01*
X145137094Y-104975819D02*
X145137094Y-103975819D01*
X145137094Y-103975819D02*
X144756142Y-103975819D01*
X144756142Y-103975819D02*
X144660904Y-104023438D01*
X144660904Y-104023438D02*
X144613285Y-104071057D01*
X144613285Y-104071057D02*
X144565666Y-104166295D01*
X144565666Y-104166295D02*
X144565666Y-104309152D01*
X144565666Y-104309152D02*
X144613285Y-104404390D01*
X144613285Y-104404390D02*
X144660904Y-104452009D01*
X144660904Y-104452009D02*
X144756142Y-104499628D01*
X144756142Y-104499628D02*
X145137094Y-104499628D01*
X144232332Y-103975819D02*
X143613285Y-103975819D01*
X143613285Y-103975819D02*
X143946618Y-104356771D01*
X143946618Y-104356771D02*
X143803761Y-104356771D01*
X143803761Y-104356771D02*
X143708523Y-104404390D01*
X143708523Y-104404390D02*
X143660904Y-104452009D01*
X143660904Y-104452009D02*
X143613285Y-104547247D01*
X143613285Y-104547247D02*
X143613285Y-104785342D01*
X143613285Y-104785342D02*
X143660904Y-104880580D01*
X143660904Y-104880580D02*
X143708523Y-104928200D01*
X143708523Y-104928200D02*
X143803761Y-104975819D01*
X143803761Y-104975819D02*
X144089475Y-104975819D01*
X144089475Y-104975819D02*
X144184713Y-104928200D01*
X144184713Y-104928200D02*
X144232332Y-104880580D01*
X149772666Y-126057819D02*
X150105999Y-125581628D01*
X150344094Y-126057819D02*
X150344094Y-125057819D01*
X150344094Y-125057819D02*
X149963142Y-125057819D01*
X149963142Y-125057819D02*
X149867904Y-125105438D01*
X149867904Y-125105438D02*
X149820285Y-125153057D01*
X149820285Y-125153057D02*
X149772666Y-125248295D01*
X149772666Y-125248295D02*
X149772666Y-125391152D01*
X149772666Y-125391152D02*
X149820285Y-125486390D01*
X149820285Y-125486390D02*
X149867904Y-125534009D01*
X149867904Y-125534009D02*
X149963142Y-125581628D01*
X149963142Y-125581628D02*
X150344094Y-125581628D01*
X149439332Y-125057819D02*
X148772666Y-125057819D01*
X148772666Y-125057819D02*
X149201237Y-126057819D01*
X151997580Y-119499142D02*
X152045200Y-119451523D01*
X152045200Y-119451523D02*
X152092819Y-119308666D01*
X152092819Y-119308666D02*
X152092819Y-119213428D01*
X152092819Y-119213428D02*
X152045200Y-119070571D01*
X152045200Y-119070571D02*
X151949961Y-118975333D01*
X151949961Y-118975333D02*
X151854723Y-118927714D01*
X151854723Y-118927714D02*
X151664247Y-118880095D01*
X151664247Y-118880095D02*
X151521390Y-118880095D01*
X151521390Y-118880095D02*
X151330914Y-118927714D01*
X151330914Y-118927714D02*
X151235676Y-118975333D01*
X151235676Y-118975333D02*
X151140438Y-119070571D01*
X151140438Y-119070571D02*
X151092819Y-119213428D01*
X151092819Y-119213428D02*
X151092819Y-119308666D01*
X151092819Y-119308666D02*
X151140438Y-119451523D01*
X151140438Y-119451523D02*
X151188057Y-119499142D01*
X152092819Y-120451523D02*
X152092819Y-119880095D01*
X152092819Y-120165809D02*
X151092819Y-120165809D01*
X151092819Y-120165809D02*
X151235676Y-120070571D01*
X151235676Y-120070571D02*
X151330914Y-119975333D01*
X151330914Y-119975333D02*
X151378533Y-119880095D01*
X152092819Y-121403904D02*
X152092819Y-120832476D01*
X152092819Y-121118190D02*
X151092819Y-121118190D01*
X151092819Y-121118190D02*
X151235676Y-121022952D01*
X151235676Y-121022952D02*
X151330914Y-120927714D01*
X151330914Y-120927714D02*
X151378533Y-120832476D01*
X135659714Y-104452009D02*
X135516857Y-104499628D01*
X135516857Y-104499628D02*
X135469238Y-104547247D01*
X135469238Y-104547247D02*
X135421619Y-104642485D01*
X135421619Y-104642485D02*
X135421619Y-104785342D01*
X135421619Y-104785342D02*
X135469238Y-104880580D01*
X135469238Y-104880580D02*
X135516857Y-104928200D01*
X135516857Y-104928200D02*
X135612095Y-104975819D01*
X135612095Y-104975819D02*
X135993047Y-104975819D01*
X135993047Y-104975819D02*
X135993047Y-103975819D01*
X135993047Y-103975819D02*
X135659714Y-103975819D01*
X135659714Y-103975819D02*
X135564476Y-104023438D01*
X135564476Y-104023438D02*
X135516857Y-104071057D01*
X135516857Y-104071057D02*
X135469238Y-104166295D01*
X135469238Y-104166295D02*
X135469238Y-104261533D01*
X135469238Y-104261533D02*
X135516857Y-104356771D01*
X135516857Y-104356771D02*
X135564476Y-104404390D01*
X135564476Y-104404390D02*
X135659714Y-104452009D01*
X135659714Y-104452009D02*
X135993047Y-104452009D01*
X135135904Y-103975819D02*
X134564476Y-103975819D01*
X134850190Y-104975819D02*
X134850190Y-103975819D01*
X133707333Y-104975819D02*
X134278761Y-104975819D01*
X133993047Y-104975819D02*
X133993047Y-103975819D01*
X133993047Y-103975819D02*
X134088285Y-104118676D01*
X134088285Y-104118676D02*
X134183523Y-104213914D01*
X134183523Y-104213914D02*
X134278761Y-104261533D01*
X157712580Y-110323333D02*
X157760200Y-110275714D01*
X157760200Y-110275714D02*
X157807819Y-110132857D01*
X157807819Y-110132857D02*
X157807819Y-110037619D01*
X157807819Y-110037619D02*
X157760200Y-109894762D01*
X157760200Y-109894762D02*
X157664961Y-109799524D01*
X157664961Y-109799524D02*
X157569723Y-109751905D01*
X157569723Y-109751905D02*
X157379247Y-109704286D01*
X157379247Y-109704286D02*
X157236390Y-109704286D01*
X157236390Y-109704286D02*
X157045914Y-109751905D01*
X157045914Y-109751905D02*
X156950676Y-109799524D01*
X156950676Y-109799524D02*
X156855438Y-109894762D01*
X156855438Y-109894762D02*
X156807819Y-110037619D01*
X156807819Y-110037619D02*
X156807819Y-110132857D01*
X156807819Y-110132857D02*
X156855438Y-110275714D01*
X156855438Y-110275714D02*
X156903057Y-110323333D01*
X157807819Y-110799524D02*
X157807819Y-110990000D01*
X157807819Y-110990000D02*
X157760200Y-111085238D01*
X157760200Y-111085238D02*
X157712580Y-111132857D01*
X157712580Y-111132857D02*
X157569723Y-111228095D01*
X157569723Y-111228095D02*
X157379247Y-111275714D01*
X157379247Y-111275714D02*
X156998295Y-111275714D01*
X156998295Y-111275714D02*
X156903057Y-111228095D01*
X156903057Y-111228095D02*
X156855438Y-111180476D01*
X156855438Y-111180476D02*
X156807819Y-111085238D01*
X156807819Y-111085238D02*
X156807819Y-110894762D01*
X156807819Y-110894762D02*
X156855438Y-110799524D01*
X156855438Y-110799524D02*
X156903057Y-110751905D01*
X156903057Y-110751905D02*
X156998295Y-110704286D01*
X156998295Y-110704286D02*
X157236390Y-110704286D01*
X157236390Y-110704286D02*
X157331628Y-110751905D01*
X157331628Y-110751905D02*
X157379247Y-110799524D01*
X157379247Y-110799524D02*
X157426866Y-110894762D01*
X157426866Y-110894762D02*
X157426866Y-111085238D01*
X157426866Y-111085238D02*
X157379247Y-111180476D01*
X157379247Y-111180476D02*
X157331628Y-111228095D01*
X157331628Y-111228095D02*
X157236390Y-111275714D01*
X157551333Y-136329009D02*
X157884666Y-136329009D01*
X157884666Y-136852819D02*
X157884666Y-135852819D01*
X157884666Y-135852819D02*
X157408476Y-135852819D01*
X156694190Y-136329009D02*
X156551333Y-136376628D01*
X156551333Y-136376628D02*
X156503714Y-136424247D01*
X156503714Y-136424247D02*
X156456095Y-136519485D01*
X156456095Y-136519485D02*
X156456095Y-136662342D01*
X156456095Y-136662342D02*
X156503714Y-136757580D01*
X156503714Y-136757580D02*
X156551333Y-136805200D01*
X156551333Y-136805200D02*
X156646571Y-136852819D01*
X156646571Y-136852819D02*
X157027523Y-136852819D01*
X157027523Y-136852819D02*
X157027523Y-135852819D01*
X157027523Y-135852819D02*
X156694190Y-135852819D01*
X156694190Y-135852819D02*
X156598952Y-135900438D01*
X156598952Y-135900438D02*
X156551333Y-135948057D01*
X156551333Y-135948057D02*
X156503714Y-136043295D01*
X156503714Y-136043295D02*
X156503714Y-136138533D01*
X156503714Y-136138533D02*
X156551333Y-136233771D01*
X156551333Y-136233771D02*
X156598952Y-136281390D01*
X156598952Y-136281390D02*
X156694190Y-136329009D01*
X156694190Y-136329009D02*
X157027523Y-136329009D01*
X155503714Y-136852819D02*
X156075142Y-136852819D01*
X155789428Y-136852819D02*
X155789428Y-135852819D01*
X155789428Y-135852819D02*
X155884666Y-135995676D01*
X155884666Y-135995676D02*
X155979904Y-136090914D01*
X155979904Y-136090914D02*
X156075142Y-136138533D01*
X134342094Y-129359819D02*
X134342094Y-128359819D01*
X134342094Y-128359819D02*
X134103999Y-128359819D01*
X134103999Y-128359819D02*
X133961142Y-128407438D01*
X133961142Y-128407438D02*
X133865904Y-128502676D01*
X133865904Y-128502676D02*
X133818285Y-128597914D01*
X133818285Y-128597914D02*
X133770666Y-128788390D01*
X133770666Y-128788390D02*
X133770666Y-128931247D01*
X133770666Y-128931247D02*
X133818285Y-129121723D01*
X133818285Y-129121723D02*
X133865904Y-129216961D01*
X133865904Y-129216961D02*
X133961142Y-129312200D01*
X133961142Y-129312200D02*
X134103999Y-129359819D01*
X134103999Y-129359819D02*
X134342094Y-129359819D01*
X132865904Y-128359819D02*
X133342094Y-128359819D01*
X133342094Y-128359819D02*
X133389713Y-128836009D01*
X133389713Y-128836009D02*
X133342094Y-128788390D01*
X133342094Y-128788390D02*
X133246856Y-128740771D01*
X133246856Y-128740771D02*
X133008761Y-128740771D01*
X133008761Y-128740771D02*
X132913523Y-128788390D01*
X132913523Y-128788390D02*
X132865904Y-128836009D01*
X132865904Y-128836009D02*
X132818285Y-128931247D01*
X132818285Y-128931247D02*
X132818285Y-129169342D01*
X132818285Y-129169342D02*
X132865904Y-129264580D01*
X132865904Y-129264580D02*
X132913523Y-129312200D01*
X132913523Y-129312200D02*
X133008761Y-129359819D01*
X133008761Y-129359819D02*
X133246856Y-129359819D01*
X133246856Y-129359819D02*
X133342094Y-129312200D01*
X133342094Y-129312200D02*
X133389713Y-129264580D01*
X156757666Y-139392819D02*
X157090999Y-138916628D01*
X157329094Y-139392819D02*
X157329094Y-138392819D01*
X157329094Y-138392819D02*
X156948142Y-138392819D01*
X156948142Y-138392819D02*
X156852904Y-138440438D01*
X156852904Y-138440438D02*
X156805285Y-138488057D01*
X156805285Y-138488057D02*
X156757666Y-138583295D01*
X156757666Y-138583295D02*
X156757666Y-138726152D01*
X156757666Y-138726152D02*
X156805285Y-138821390D01*
X156805285Y-138821390D02*
X156852904Y-138869009D01*
X156852904Y-138869009D02*
X156948142Y-138916628D01*
X156948142Y-138916628D02*
X157329094Y-138916628D01*
X156186237Y-138821390D02*
X156281475Y-138773771D01*
X156281475Y-138773771D02*
X156329094Y-138726152D01*
X156329094Y-138726152D02*
X156376713Y-138630914D01*
X156376713Y-138630914D02*
X156376713Y-138583295D01*
X156376713Y-138583295D02*
X156329094Y-138488057D01*
X156329094Y-138488057D02*
X156281475Y-138440438D01*
X156281475Y-138440438D02*
X156186237Y-138392819D01*
X156186237Y-138392819D02*
X155995761Y-138392819D01*
X155995761Y-138392819D02*
X155900523Y-138440438D01*
X155900523Y-138440438D02*
X155852904Y-138488057D01*
X155852904Y-138488057D02*
X155805285Y-138583295D01*
X155805285Y-138583295D02*
X155805285Y-138630914D01*
X155805285Y-138630914D02*
X155852904Y-138726152D01*
X155852904Y-138726152D02*
X155900523Y-138773771D01*
X155900523Y-138773771D02*
X155995761Y-138821390D01*
X155995761Y-138821390D02*
X156186237Y-138821390D01*
X156186237Y-138821390D02*
X156281475Y-138869009D01*
X156281475Y-138869009D02*
X156329094Y-138916628D01*
X156329094Y-138916628D02*
X156376713Y-139011866D01*
X156376713Y-139011866D02*
X156376713Y-139202342D01*
X156376713Y-139202342D02*
X156329094Y-139297580D01*
X156329094Y-139297580D02*
X156281475Y-139345200D01*
X156281475Y-139345200D02*
X156186237Y-139392819D01*
X156186237Y-139392819D02*
X155995761Y-139392819D01*
X155995761Y-139392819D02*
X155900523Y-139345200D01*
X155900523Y-139345200D02*
X155852904Y-139297580D01*
X155852904Y-139297580D02*
X155805285Y-139202342D01*
X155805285Y-139202342D02*
X155805285Y-139011866D01*
X155805285Y-139011866D02*
X155852904Y-138916628D01*
X155852904Y-138916628D02*
X155900523Y-138869009D01*
X155900523Y-138869009D02*
X155995761Y-138821390D01*
X143549666Y-136630580D02*
X143597285Y-136678200D01*
X143597285Y-136678200D02*
X143740142Y-136725819D01*
X143740142Y-136725819D02*
X143835380Y-136725819D01*
X143835380Y-136725819D02*
X143978237Y-136678200D01*
X143978237Y-136678200D02*
X144073475Y-136582961D01*
X144073475Y-136582961D02*
X144121094Y-136487723D01*
X144121094Y-136487723D02*
X144168713Y-136297247D01*
X144168713Y-136297247D02*
X144168713Y-136154390D01*
X144168713Y-136154390D02*
X144121094Y-135963914D01*
X144121094Y-135963914D02*
X144073475Y-135868676D01*
X144073475Y-135868676D02*
X143978237Y-135773438D01*
X143978237Y-135773438D02*
X143835380Y-135725819D01*
X143835380Y-135725819D02*
X143740142Y-135725819D01*
X143740142Y-135725819D02*
X143597285Y-135773438D01*
X143597285Y-135773438D02*
X143549666Y-135821057D01*
X142978237Y-136154390D02*
X143073475Y-136106771D01*
X143073475Y-136106771D02*
X143121094Y-136059152D01*
X143121094Y-136059152D02*
X143168713Y-135963914D01*
X143168713Y-135963914D02*
X143168713Y-135916295D01*
X143168713Y-135916295D02*
X143121094Y-135821057D01*
X143121094Y-135821057D02*
X143073475Y-135773438D01*
X143073475Y-135773438D02*
X142978237Y-135725819D01*
X142978237Y-135725819D02*
X142787761Y-135725819D01*
X142787761Y-135725819D02*
X142692523Y-135773438D01*
X142692523Y-135773438D02*
X142644904Y-135821057D01*
X142644904Y-135821057D02*
X142597285Y-135916295D01*
X142597285Y-135916295D02*
X142597285Y-135963914D01*
X142597285Y-135963914D02*
X142644904Y-136059152D01*
X142644904Y-136059152D02*
X142692523Y-136106771D01*
X142692523Y-136106771D02*
X142787761Y-136154390D01*
X142787761Y-136154390D02*
X142978237Y-136154390D01*
X142978237Y-136154390D02*
X143073475Y-136202009D01*
X143073475Y-136202009D02*
X143121094Y-136249628D01*
X143121094Y-136249628D02*
X143168713Y-136344866D01*
X143168713Y-136344866D02*
X143168713Y-136535342D01*
X143168713Y-136535342D02*
X143121094Y-136630580D01*
X143121094Y-136630580D02*
X143073475Y-136678200D01*
X143073475Y-136678200D02*
X142978237Y-136725819D01*
X142978237Y-136725819D02*
X142787761Y-136725819D01*
X142787761Y-136725819D02*
X142692523Y-136678200D01*
X142692523Y-136678200D02*
X142644904Y-136630580D01*
X142644904Y-136630580D02*
X142597285Y-136535342D01*
X142597285Y-136535342D02*
X142597285Y-136344866D01*
X142597285Y-136344866D02*
X142644904Y-136249628D01*
X142644904Y-136249628D02*
X142692523Y-136202009D01*
X142692523Y-136202009D02*
X142787761Y-136154390D01*
X126184819Y-131087905D02*
X125184819Y-131087905D01*
X125184819Y-131087905D02*
X125184819Y-131326000D01*
X125184819Y-131326000D02*
X125232438Y-131468857D01*
X125232438Y-131468857D02*
X125327676Y-131564095D01*
X125327676Y-131564095D02*
X125422914Y-131611714D01*
X125422914Y-131611714D02*
X125613390Y-131659333D01*
X125613390Y-131659333D02*
X125756247Y-131659333D01*
X125756247Y-131659333D02*
X125946723Y-131611714D01*
X125946723Y-131611714D02*
X126041961Y-131564095D01*
X126041961Y-131564095D02*
X126137200Y-131468857D01*
X126137200Y-131468857D02*
X126184819Y-131326000D01*
X126184819Y-131326000D02*
X126184819Y-131087905D01*
X125280057Y-132040286D02*
X125232438Y-132087905D01*
X125232438Y-132087905D02*
X125184819Y-132183143D01*
X125184819Y-132183143D02*
X125184819Y-132421238D01*
X125184819Y-132421238D02*
X125232438Y-132516476D01*
X125232438Y-132516476D02*
X125280057Y-132564095D01*
X125280057Y-132564095D02*
X125375295Y-132611714D01*
X125375295Y-132611714D02*
X125470533Y-132611714D01*
X125470533Y-132611714D02*
X125613390Y-132564095D01*
X125613390Y-132564095D02*
X126184819Y-131992667D01*
X126184819Y-131992667D02*
X126184819Y-132611714D01*
X146885819Y-131024333D02*
X146409628Y-130691000D01*
X146885819Y-130452905D02*
X145885819Y-130452905D01*
X145885819Y-130452905D02*
X145885819Y-130833857D01*
X145885819Y-130833857D02*
X145933438Y-130929095D01*
X145933438Y-130929095D02*
X145981057Y-130976714D01*
X145981057Y-130976714D02*
X146076295Y-131024333D01*
X146076295Y-131024333D02*
X146219152Y-131024333D01*
X146219152Y-131024333D02*
X146314390Y-130976714D01*
X146314390Y-130976714D02*
X146362009Y-130929095D01*
X146362009Y-130929095D02*
X146409628Y-130833857D01*
X146409628Y-130833857D02*
X146409628Y-130452905D01*
X146885819Y-131976714D02*
X146885819Y-131405286D01*
X146885819Y-131691000D02*
X145885819Y-131691000D01*
X145885819Y-131691000D02*
X146028676Y-131595762D01*
X146028676Y-131595762D02*
X146123914Y-131500524D01*
X146123914Y-131500524D02*
X146171533Y-131405286D01*
X148912200Y-70719667D02*
X148959819Y-70862524D01*
X148959819Y-70862524D02*
X148959819Y-71100619D01*
X148959819Y-71100619D02*
X148912200Y-71195857D01*
X148912200Y-71195857D02*
X148864580Y-71243476D01*
X148864580Y-71243476D02*
X148769342Y-71291095D01*
X148769342Y-71291095D02*
X148674104Y-71291095D01*
X148674104Y-71291095D02*
X148578866Y-71243476D01*
X148578866Y-71243476D02*
X148531247Y-71195857D01*
X148531247Y-71195857D02*
X148483628Y-71100619D01*
X148483628Y-71100619D02*
X148436009Y-70910143D01*
X148436009Y-70910143D02*
X148388390Y-70814905D01*
X148388390Y-70814905D02*
X148340771Y-70767286D01*
X148340771Y-70767286D02*
X148245533Y-70719667D01*
X148245533Y-70719667D02*
X148150295Y-70719667D01*
X148150295Y-70719667D02*
X148055057Y-70767286D01*
X148055057Y-70767286D02*
X148007438Y-70814905D01*
X148007438Y-70814905D02*
X147959819Y-70910143D01*
X147959819Y-70910143D02*
X147959819Y-71148238D01*
X147959819Y-71148238D02*
X148007438Y-71291095D01*
X147959819Y-71624429D02*
X148959819Y-71862524D01*
X148959819Y-71862524D02*
X148245533Y-72053000D01*
X148245533Y-72053000D02*
X148959819Y-72243476D01*
X148959819Y-72243476D02*
X147959819Y-72481572D01*
X147959819Y-73291095D02*
X147959819Y-73100619D01*
X147959819Y-73100619D02*
X148007438Y-73005381D01*
X148007438Y-73005381D02*
X148055057Y-72957762D01*
X148055057Y-72957762D02*
X148197914Y-72862524D01*
X148197914Y-72862524D02*
X148388390Y-72814905D01*
X148388390Y-72814905D02*
X148769342Y-72814905D01*
X148769342Y-72814905D02*
X148864580Y-72862524D01*
X148864580Y-72862524D02*
X148912200Y-72910143D01*
X148912200Y-72910143D02*
X148959819Y-73005381D01*
X148959819Y-73005381D02*
X148959819Y-73195857D01*
X148959819Y-73195857D02*
X148912200Y-73291095D01*
X148912200Y-73291095D02*
X148864580Y-73338714D01*
X148864580Y-73338714D02*
X148769342Y-73386333D01*
X148769342Y-73386333D02*
X148531247Y-73386333D01*
X148531247Y-73386333D02*
X148436009Y-73338714D01*
X148436009Y-73338714D02*
X148388390Y-73291095D01*
X148388390Y-73291095D02*
X148340771Y-73195857D01*
X148340771Y-73195857D02*
X148340771Y-73005381D01*
X148340771Y-73005381D02*
X148388390Y-72910143D01*
X148388390Y-72910143D02*
X148436009Y-72862524D01*
X148436009Y-72862524D02*
X148531247Y-72814905D01*
X140027819Y-123404333D02*
X139551628Y-123071000D01*
X140027819Y-122832905D02*
X139027819Y-122832905D01*
X139027819Y-122832905D02*
X139027819Y-123213857D01*
X139027819Y-123213857D02*
X139075438Y-123309095D01*
X139075438Y-123309095D02*
X139123057Y-123356714D01*
X139123057Y-123356714D02*
X139218295Y-123404333D01*
X139218295Y-123404333D02*
X139361152Y-123404333D01*
X139361152Y-123404333D02*
X139456390Y-123356714D01*
X139456390Y-123356714D02*
X139504009Y-123309095D01*
X139504009Y-123309095D02*
X139551628Y-123213857D01*
X139551628Y-123213857D02*
X139551628Y-122832905D01*
X140027819Y-123880524D02*
X140027819Y-124071000D01*
X140027819Y-124071000D02*
X139980200Y-124166238D01*
X139980200Y-124166238D02*
X139932580Y-124213857D01*
X139932580Y-124213857D02*
X139789723Y-124309095D01*
X139789723Y-124309095D02*
X139599247Y-124356714D01*
X139599247Y-124356714D02*
X139218295Y-124356714D01*
X139218295Y-124356714D02*
X139123057Y-124309095D01*
X139123057Y-124309095D02*
X139075438Y-124261476D01*
X139075438Y-124261476D02*
X139027819Y-124166238D01*
X139027819Y-124166238D02*
X139027819Y-123975762D01*
X139027819Y-123975762D02*
X139075438Y-123880524D01*
X139075438Y-123880524D02*
X139123057Y-123832905D01*
X139123057Y-123832905D02*
X139218295Y-123785286D01*
X139218295Y-123785286D02*
X139456390Y-123785286D01*
X139456390Y-123785286D02*
X139551628Y-123832905D01*
X139551628Y-123832905D02*
X139599247Y-123880524D01*
X139599247Y-123880524D02*
X139646866Y-123975762D01*
X139646866Y-123975762D02*
X139646866Y-124166238D01*
X139646866Y-124166238D02*
X139599247Y-124261476D01*
X139599247Y-124261476D02*
X139551628Y-124309095D01*
X139551628Y-124309095D02*
X139456390Y-124356714D01*
X129486819Y-130960905D02*
X128486819Y-130960905D01*
X128486819Y-130960905D02*
X128486819Y-131199000D01*
X128486819Y-131199000D02*
X128534438Y-131341857D01*
X128534438Y-131341857D02*
X128629676Y-131437095D01*
X128629676Y-131437095D02*
X128724914Y-131484714D01*
X128724914Y-131484714D02*
X128915390Y-131532333D01*
X128915390Y-131532333D02*
X129058247Y-131532333D01*
X129058247Y-131532333D02*
X129248723Y-131484714D01*
X129248723Y-131484714D02*
X129343961Y-131437095D01*
X129343961Y-131437095D02*
X129439200Y-131341857D01*
X129439200Y-131341857D02*
X129486819Y-131199000D01*
X129486819Y-131199000D02*
X129486819Y-130960905D01*
X128486819Y-131865667D02*
X128486819Y-132484714D01*
X128486819Y-132484714D02*
X128867771Y-132151381D01*
X128867771Y-132151381D02*
X128867771Y-132294238D01*
X128867771Y-132294238D02*
X128915390Y-132389476D01*
X128915390Y-132389476D02*
X128963009Y-132437095D01*
X128963009Y-132437095D02*
X129058247Y-132484714D01*
X129058247Y-132484714D02*
X129296342Y-132484714D01*
X129296342Y-132484714D02*
X129391580Y-132437095D01*
X129391580Y-132437095D02*
X129439200Y-132389476D01*
X129439200Y-132389476D02*
X129486819Y-132294238D01*
X129486819Y-132294238D02*
X129486819Y-132008524D01*
X129486819Y-132008524D02*
X129439200Y-131913286D01*
X129439200Y-131913286D02*
X129391580Y-131865667D01*
D11*
%TO.C,R6*%
X148476742Y-128636500D02*
X148951258Y-128636500D01*
X148476742Y-129681500D02*
X148951258Y-129681500D01*
%TO.C,C12*%
X143386500Y-125108580D02*
X143386500Y-124827420D01*
X144406500Y-125108580D02*
X144406500Y-124827420D01*
D12*
%TO.C,U1*%
X143859000Y-133741000D02*
X139859000Y-133741000D01*
X143859000Y-128641000D02*
X139859000Y-128641000D01*
D13*
X146404000Y-128686000D02*
G75*
G03*
X146404000Y-128686000I-100000J0D01*
G01*
D11*
%TO.C,D1*%
X124750000Y-130175000D02*
X124750000Y-129525000D01*
X124750000Y-130175000D02*
X124750000Y-130825000D01*
X121630000Y-130175000D02*
X121630000Y-128500000D01*
X121630000Y-130175000D02*
X121630000Y-130825000D01*
%TO.C,R5*%
X136824258Y-132475500D02*
X136349742Y-132475500D01*
X136824258Y-131430500D02*
X136349742Y-131430500D01*
%TO.C,C14*%
X128410580Y-139194000D02*
X128129420Y-139194000D01*
X128410580Y-138174000D02*
X128129420Y-138174000D01*
%TO.C,R2*%
X157875500Y-104791742D02*
X157875500Y-105266258D01*
X156830500Y-104791742D02*
X156830500Y-105266258D01*
%TO.C,C13*%
X128410580Y-136146000D02*
X128129420Y-136146000D01*
X128410580Y-135126000D02*
X128129420Y-135126000D01*
%TO.C,C10*%
X148576420Y-132586000D02*
X148857580Y-132586000D01*
X148576420Y-133606000D02*
X148857580Y-133606000D01*
%TO.C,Q1*%
X156113500Y-109032000D02*
X156113500Y-108382000D01*
X156113500Y-109032000D02*
X156113500Y-109682000D01*
X152993500Y-109032000D02*
X152993500Y-107357000D01*
X152993500Y-109032000D02*
X152993500Y-109682000D01*
%TO.C,C6*%
X140094580Y-135257000D02*
X139813420Y-135257000D01*
X140094580Y-134237000D02*
X139813420Y-134237000D01*
%TO.C,R10*%
X142897242Y-126731500D02*
X143371758Y-126731500D01*
X142897242Y-127776500D02*
X143371758Y-127776500D01*
%TO.C,U2*%
X154553500Y-103789000D02*
X153753500Y-103789000D01*
X154553500Y-103789000D02*
X155353500Y-103789000D01*
X154553500Y-106909000D02*
X152753500Y-106909000D01*
X154553500Y-106909000D02*
X155353500Y-106909000D01*
%TO.C,Q2*%
X152243000Y-107871500D02*
X152243000Y-107221500D01*
X152243000Y-107871500D02*
X152243000Y-108521500D01*
X149123000Y-107871500D02*
X149123000Y-106196500D01*
X149123000Y-107871500D02*
X149123000Y-108521500D01*
%TO.C,D4*%
X134962000Y-132688000D02*
X132677000Y-132688000D01*
X134962000Y-131218000D02*
X134962000Y-132688000D01*
X132677000Y-131218000D02*
X134962000Y-131218000D01*
%TO.C,J5*%
X154629000Y-123563000D02*
X153219000Y-123563000D01*
X150549000Y-124383000D02*
X150699000Y-124383000D01*
X150549000Y-125183000D02*
X150549000Y-124383000D01*
X154629000Y-132723000D02*
X153219000Y-132723000D01*
%TO.C,R4*%
X136824258Y-130951500D02*
X136349742Y-130951500D01*
X136824258Y-129906500D02*
X136349742Y-129906500D01*
%TO.C,U3*%
X146685000Y-125893000D02*
X147485000Y-125893000D01*
X146685000Y-125893000D02*
X145885000Y-125893000D01*
X146685000Y-122773000D02*
X148485000Y-122773000D01*
X146685000Y-122773000D02*
X145885000Y-122773000D01*
%TO.C,C7*%
X152652000Y-118504580D02*
X152652000Y-118223420D01*
X153672000Y-118504580D02*
X153672000Y-118223420D01*
%TO.C,R3*%
X151240258Y-105678500D02*
X150765742Y-105678500D01*
X151240258Y-104633500D02*
X150765742Y-104633500D01*
%TO.C,R7*%
X148476742Y-126350500D02*
X148951258Y-126350500D01*
X148476742Y-127395500D02*
X148951258Y-127395500D01*
%TO.C,C11*%
X148974500Y-123772580D02*
X148974500Y-123491420D01*
X149994500Y-123772580D02*
X149994500Y-123491420D01*
%TO.C,BT1*%
X151456000Y-117642000D02*
X151456000Y-116092000D01*
X151456000Y-109942000D02*
X151456000Y-111492000D01*
X149906000Y-118792000D02*
X149906000Y-120792000D01*
X148906000Y-119792000D02*
X150906000Y-119792000D01*
X148256000Y-120342000D02*
X148256000Y-117642000D01*
X148256000Y-117642000D02*
X151456000Y-117642000D01*
X148256000Y-109942000D02*
X151456000Y-109942000D01*
X148256000Y-105442000D02*
X148256000Y-109942000D01*
X148256000Y-105442000D02*
X125556000Y-105442000D01*
X146456000Y-122142000D02*
X148256000Y-120342000D01*
X125556000Y-122142000D02*
X146456000Y-122142000D01*
X125556000Y-122142000D02*
X125556000Y-117642000D01*
X125556000Y-117642000D02*
X122356000Y-117642000D01*
X125556000Y-109942000D02*
X122356000Y-109942000D01*
X125556000Y-105442000D02*
X125556000Y-109942000D01*
X122356000Y-117642000D02*
X122356000Y-116092000D01*
X122356000Y-109942000D02*
X122356000Y-111492000D01*
%TO.C,C9*%
X156837500Y-108217580D02*
X156837500Y-107936420D01*
X157857500Y-108217580D02*
X157857500Y-107936420D01*
%TO.C,FB1*%
X148879779Y-132082000D02*
X148554221Y-132082000D01*
X148879779Y-131062000D02*
X148554221Y-131062000D01*
%TO.C,D5*%
X134962000Y-131164000D02*
X132677000Y-131164000D01*
X134962000Y-129694000D02*
X134962000Y-131164000D01*
X132677000Y-129694000D02*
X134962000Y-129694000D01*
%TO.C,R8*%
X148479742Y-134224500D02*
X148954258Y-134224500D01*
X148479742Y-135269500D02*
X148954258Y-135269500D01*
%TO.C,C8*%
X142872670Y-134237000D02*
X143153830Y-134237000D01*
X142872670Y-135257000D02*
X143153830Y-135257000D01*
%TO.C,D2*%
X128306000Y-130175000D02*
X128306000Y-129525000D01*
X128306000Y-130175000D02*
X128306000Y-130825000D01*
X125186000Y-130175000D02*
X125186000Y-128500000D01*
X125186000Y-130175000D02*
X125186000Y-130825000D01*
%TO.C,R1*%
X145908500Y-128888258D02*
X145908500Y-128413742D01*
X146953500Y-128888258D02*
X146953500Y-128413742D01*
%TO.C,SW6*%
X156935000Y-111993000D02*
X157725000Y-111993000D01*
X158735000Y-112593000D02*
X158735000Y-118293000D01*
X155885000Y-113843000D02*
X155885000Y-115543000D01*
X160025000Y-114043000D02*
X160235000Y-114243000D01*
X158735000Y-114043000D02*
X160025000Y-114043000D01*
X160235000Y-114243000D02*
X160235000Y-115143000D01*
X160025000Y-115343000D02*
X160235000Y-115143000D01*
X160025000Y-115343000D02*
X158735000Y-115343000D01*
X155885000Y-116843000D02*
X155885000Y-117043000D01*
X157725000Y-118893000D02*
X156935000Y-118893000D01*
%TO.C,R9*%
X141850000Y-125205258D02*
X141850000Y-124730742D01*
X142895000Y-125205258D02*
X142895000Y-124730742D01*
%TO.C,D3*%
X131735000Y-130175000D02*
X131735000Y-129525000D01*
X131735000Y-130175000D02*
X131735000Y-130825000D01*
X128615000Y-130175000D02*
X128615000Y-128500000D01*
X128615000Y-130175000D02*
X128615000Y-130825000D01*
%TD*%
M02*
